<?xml version="1.0" encoding="utf-8"?>
<!-- Generator: Adobe Illustrator 27.8.1, SVG Export Plug-In . SVG Version: 6.00 Build 0)  -->
<svg version="1.1" id="Layer_1" xmlns="http://www.w3.org/2000/svg" xmlns:xlink="http://www.w3.org/1999/xlink" x="0px" y="0px"
	 viewBox="0 0 48 23.4" style="enable-background:new 0 0 48 23.4;" xml:space="preserve">
<style type="text/css">
	.st0{fill:#717171;}
</style>
<g id="Rock">
	<g>
		<g id="rocksFillSymbol_00000090265163979110373470000002714873583470611362_">
			<g id="rockFillSymbol_00000020377059352738250790000010971697831041707920_">
				<polygon class="st0" points="9.1,15.7 0,15.7 0,15 9,15 10.8,14.4 12.3,12.3 12.9,12.7 11.2,15.1 				"/>
				<polygon class="st0" points="31.9,15.7 27.1,15.3 22.7,14 22,14 21.7,14.2 20.1,15.2 19.7,14.6 21.4,13.5 25.8,11.6 29.4,10 
					29.9,9.4 30.1,8.7 30.1,8.6 30.1,8.4 30,7.4 29.4,6.2 29.3,6 27.3,3.7 26.3,3.5 25.6,3.6 25.4,3.7 16.1,7.3 15.8,6.6 17.9,5.7 
					21.4,4 21.8,3.4 21.6,2.2 21.6,2.2 20.3,0.8 20.4,0.4 20.3,0.8 20.1,0.8 19.9,0.4 19.9,0.8 19.8,0.8 19.6,0.4 19.7,0.8 
					17.9,1.4 12.9,3.2 9.3,4.9 6.9,5.8 6.5,6.4 6.3,7.1 6.5,7.8 6.8,8.5 7.6,9.3 8.2,9.7 7.9,10.4 7.1,9.9 6.5,9.3 5.9,8.4 5.7,7.8 
					5.6,7 5.7,6.2 6.2,5.5 6.8,5 9.1,4.2 12.7,2.5 17.7,0.7 19.6,0.1 19.8,0.4 19.7,0 20.2,0 20.3,0 20.3,0.4 20.4,0 20.8,0.2 
					21.2,0.5 22.6,2.5 22.6,3.2 22.4,3.8 22.4,4 25.8,2.8 26.4,2.7 26.9,2.8 27.7,3.1 28.3,3.6 30.1,5.8 30.5,6.6 30.7,7.2 
					30.9,8.5 30.8,8.7 30.8,8.8 30.7,9.5 30.2,10.3 29.5,10.9 29.1,11 26.1,12.3 23.6,13.3 24.2,13.5 27.3,14.5 32,15 				"/>
			</g>
			<g id="smallRockFillSymbol_00000120556982076326072810000000591000538719668121_">
				<polygon class="st0" points="36.6,23.4 32,23.4 32,22.7 36.4,22.7 37.2,22.4 38,21.4 38.6,21.8 37.7,23.1 				"/>
				<polygon class="st0" points="47.9,23.4 45.5,23.2 43.5,22.5 43.4,22.4 43.3,22.4 43.3,22.5 43.2,22.5 43.2,22.5 43.1,22.5 
					43.1,22.5 42.9,22.6 42.2,23.1 41.7,22.5 41.8,22.5 42.8,21.8 44.8,21 46.3,20.3 46.6,20.6 46.5,20.3 46.7,20.6 46.6,20.2 
					46.9,20.4 46.7,20.1 47,20.3 46.7,20 47.1,20.1 46.8,19.9 46.8,19.9 47.2,19.9 46.8,19.7 46.7,19 46.5,18.4 45.7,17.5 
					45.9,17.2 45.6,17.4 45.8,17.1 45.5,17.4 45.6,17 45.4,17.3 45.5,17 45.4,17.1 45.4,17.3 45.3,17.3 45.2,16.9 45.1,17.3 
					44.9,17.3 44.6,17 44.8,17.4 40.1,19.2 39.8,18.5 42.6,17.2 42.7,17 42.7,16.9 43.1,16.8 42.7,16.8 43.1,16.7 42.7,16.7 
					42.7,16.6 42.1,15.9 42,15.9 41.9,16 41,16.2 38.5,17.2 36.7,18 35.6,18.4 35.3,18.2 35.5,18.5 35.1,18.4 35.4,18.6 35.4,18.7 
					35,18.7 35.3,18.9 35.5,19.4 36.2,20.1 35.8,20.7 35.2,20.3 34.8,19.7 34.6,18.9 34.7,18.4 35.1,18.5 34.7,18.3 35.1,17.9 
					35.4,18.1 35.2,17.8 35.3,17.7 36.4,17.3 38.2,16.5 42,15.2 42.5,15.3 42.7,15.4 43.4,16.3 43.5,16.9 43.5,17 44.6,16.6 
					44.8,17 44.7,16.6 45.1,16.5 45.3,16.5 45.4,16.9 45.4,16.6 45.6,16.6 46.2,17 47.3,18.4 47.6,19.4 47.6,19.6 47.3,20.6 
					46.8,21 46.6,21.1 44.3,22 45.7,22.4 48,22.7 				"/>
			</g>
		</g>
	</g>
</g>
</svg>
