<?xml version="1.0" encoding="UTF-8"?>
<svg xmlns="http://www.w3.org/2000/svg" version="1.1" viewBox="0 0 50 50">
  <defs>
    <style>
      .cls-1 {
        isolation: isolate;
      }

      .cls-2 {
        fill: #acacac;
      }
    </style>
  </defs>
  <!-- Generator: Adobe Illustrator 28.7.1, SVG Export Plug-In . SVG Version: 1.2.0 Build 142)  -->
  <g>
    <g id="Layer_2">
      <g id="Scree">
        <g class="cls-1">
          <path class="cls-2" d="M22.4,3.8h.2c0,.1,0,0,0,0h.3c0,.1.1.4.1.4l-.3.2h-.2c0,0-.2-.2-.2-.2v-.2s0-.1,0-.1ZM22.5,4.2s0,0,0,0,0,0,0,0,0,0,0,0c0,0,0,0,0,0,0,0,0,0,0,0h.2c0-.1,0-.3,0-.3,0,0,0,0,0,0,0,0,0,0,0,0,0,0,0,0,0,0,0,0,0,0,0,0,0,0,0,0,0,0,0,0,0,0,0,0s0,0,0,0c0,0,0,0,0,0,0,0,0,0,0,0h0s0,.2,0,.2ZM23.2,3.7h-.2s0,0,0,0h-.2s-.2-.2-.2-.2l.2-.2h.2s.2,0,.2,0v.2c0,0,0,0,0,0ZM23.1,3.5s0,0,0,0,0,0,0,0,0,0,0,0c0,0,0,0,0,0s0,0,0,0h-.1c0,.1,0,.2,0,.2,0,0,0,0,0,0s0,0,0,0c0,0,0,0,0,0s0,0,0,0,0,0,0,0,0,0,0,0c0,0,0,0,0,0,0,0,0,0,0,0,0,0,0,0,0,0h0s0-.1,0-.1ZM22.9,3h.1c0,0,0,0,0,0h.2c0,0,0,.2,0,.2l-.2.2h-.1c0,0-.2-.2-.2-.2v-.2s0,0,0,0ZM23,3.3s0,0,0,0c0,0,0,0,0,0s0,0,0,0c0,0,0,0,0,0,0,0,0,0,0,0h.1c0,0,0-.2,0-.2,0,0,0,0,0,0s0,0,0,0c0,0,0,0,0,0,0,0,0,0,0,0s0,0,0,0c0,0,0,0,0,0s0,0,0,0h0s0,.1,0,.1ZM23.4,3h-.1s0,0,0,0h-.1s0-.1,0-.1v-.2c0,0,.2,0,.2,0h.1s0,.1,0,.1h0ZM23.4,2.8s0,0,0,0,0,0,0,0c0,0,0,0,0,0h0c0,0,0,.1,0,.1,0,0,0,0,0,0,0,0,0,0,0,0s0,0,0,0c0,0,0,0,0,0,0,0,0,0,0,0,0,0,0,0,0,0,0,0,0,0,0,0h0s0,0,0,0ZM23.2,4h.2s0-.1,0-.1h.3c0,0,.2.2.2.2l-.2.3h-.2s-.3,0-.3,0v-.2c-.1,0,0-.1,0-.1ZM23.8,3.8h-.2c0,0,0,0,0,0h-.2c0-.1-.1-.3-.1-.3l.2-.2h.2c0,0,.2.2.2.2v.2s0,0,0,0ZM23.4,4.3s0,0,0,0c0,0,0,0,0,0s0,0,0,0c0,0,0,0,0,0s0,0,0,0v-.2c.1,0,0-.1,0-.1,0,0,0,0,0,0,0,0,0,0,0,0s0,0,0,0c0,0,0,0,0,0,0,0,0,0,0,0,0,0,0,0,0,0,0,0,0,0,0,0,0,0,0,0,0,0,0,0,0,0,0,0h0c0,0,0,.2,0,.2ZM23.3,2.6h0s0,0,0,0h0c0,0,0,.1,0,.1h-.1c0,0,0,0,0,0h0c0,0,0-.1,0-.1h0ZM23.7,3.6s0,0,0,0,0,0,0,0,0,0,0,0c0,0,0,0,0,0,0,0,0,0,0,0h-.1c0,0,0,.2,0,.2,0,0,0,0,0,0,0,0,0,0,0,0s0,0,0,0c0,0,0,0,0,0,0,0,0,0,0,0s0,0,0,0,0,0,0,0c0,0,0,0,0,0s0,0,0,0h0s0-.1,0-.1ZM23.4,2.7s0,0,0,0,0,0,0,0,0,0,0,0h0s0,0,0,0c0,0,0,0,0,0,0,0,0,0,0,0,0,0,0,0,0,0s0,0,0,0,0,0,0,0h0s0,0,0,0ZM23.6,2.5h0s0,0,0,0h0s0,0,0,0h0c0,0,0,0,0,0h0s0,0,0,0h0ZM23.4,3.1h.2s0,0,0,0h.2s.1.2.1.2v.2h-.5c0,0,0-.2,0-.2h0ZM23.5,2.4h0s0,0,0,0h0s0,0,0,0c0,0,0,0,0,0s0,0,0,0h0s0,0,0,0c0,0,0,0,0,0h0s0,0,0,0ZM23.8,3h-.1c0,0,0,0,0,0h-.1c0,0,0-.2,0-.2h.1c0-.1,0,0,0,0h.1c0,0,0,.2,0,.2h0ZM23.5,3.3h0s0,0,0,0,0,0,0,0c0,0,0,0,0,0h0c0-.1,0-.2,0-.2,0,0,0,0,0,0,0,0,0,0,0,0s0,0,0,0c0,0,0,0,0,0,0,0,0,0,0,0,0,0,0,0,0,0,0,0,0,0,0,0h0s0,.1,0,.1ZM23.8,2.9s0,0,0,0c0,0,0,0,0,0s0,0,0,0h0c0,0,0,.1,0,.1,0,0,0,0,0,0,0,0,0,0,0,0,0,0,0,0,0,0,0,0,0,0,0,0s0,0,.1,0h0s0,0,0,0ZM23.6,2.6h0s0,0,0,0h.1s0,0,0,0h0c0,.1,0,.1,0,.1h0s0-.1,0-.1h0ZM23.8,2.6h0s0,0,0,0h0s0,0,0,0h0c0,0,.1,0,.1,0h0c0,0,0,0,0,0ZM23.6,2.7h.1s0,0,0,0h0s0,0,0,0c0,0,0,0,0,0s0,0,0,0c0,0,0,0,0,0,0,0,0,0,0,0h0s0,0,0,0ZM23.8,2.5s0,0,0,0c0,0,0,0,0,0,0,0,0,0,0,0h0s0,0,0,0c0,0,0,0,0,0s0,0,0,0c0,0,0,0,0,0,0,0,0,0,0,0,0,0,0,0,0,0h0s0,0,0,0ZM24,2.5h0s0,0,0,0h0s0,0,0,0h0c0,0,0,0,0,0h0s0,0,0,0h0ZM24.4,3.7h-.2s0,0,0,0h-.2s-.2-.2-.2-.2l.2-.2h.2s.2,0,.2,0v.2c0,0,0,0,0,0ZM24.2,3h-.1s0,0,0,0h-.1s0-.1,0-.1v-.2c0,0,.2,0,.2,0h.1s0,.1,0,.1h0ZM23.9,2.5h0s0,0,0,0h0s0,0,0,0c0,0,0,0,0,0,0,0,0,0,0,0s0,0,0,0c0,0,0,0,0,0h0s0,0,0,0ZM23.9,2.6h0s0,0,0,0h0c0,0,0,.1,0,.1h-.1c0,0,0,0,0,0h0c0,0,0-.1,0-.1h0ZM23.9,2.7s0,0,0,0,0,0,0,0,0,0,0,0h0s0,0,0,0c0,0,0,0,0,0,0,0,0,0,0,0,0,0,0,0,0,0s0,0,0,0,0,0,0,0h0s0,0,0,0ZM24.1,2.8s0,0,0,0c0,0,0,0,0,0h0c0,0,0,.1,0,.1,0,0,0,0,0,0s0,0,0,0,0,0,0,0c0,0,0,0,0,0,0,0,0,0,0,0,0,0,0,0,0,0s0,0,0,0h0s0,0,0,0ZM24.3,3.5s0,0,0,0c0,0,0,0,0,0,0,0,0,0,0,0s0,0,0,0,0,0,0,0h-.1c0,.1,0,.2,0,.2,0,0,0,0,0,0,0,0,0,0,0,0,0,0,0,0,0,0s0,0,0,0c0,0,0,0,0,0s0,0,0,0c0,0,0,0,0,0,0,0,0,0,0,0,0,0,0,0,0,0h0s0-.1,0-.1ZM24,3h.1c0,0,0,0,0,0h.2c0,0,0,.2,0,.2l-.2.2h-.1c0,0-.2-.2-.2-.2v-.2s0,0,0,0ZM24,3.8h.2c0,.1,0,0,0,0h.3c0,.1.1.4.1.4l-.3.2h-.2c0,0-.2-.2-.2-.2v-.2s0-.1,0-.1ZM24.2,2.6h0s0,0,0,0h0s0,0,0,0h0c0,0,0,0,0,0h0s0,0,0,0h0ZM24,3.3s0,0,0,0c0,0,0,0,0,0s0,0,0,0c0,0,0,0,0,0s0,0,0,0h.1c0,0,0-.2,0-.2,0,0,0,0,0,0,0,0,0,0,0,0,0,0,0,0,0,0,0,0,0,0,0,0s0,0,0,0,0,0,0,0c0,0,0,0,0,0h0s0,.1,0,.1ZM24.2,2.5s0,0,0,0c0,0,0,0,0,0h0s0,0,0,0c0,0,0,0,0,0s0,0,0,0,0,0,0,0c0,0,0,0,0,0,0,0,0,0,0,0h0s0,0,0,0ZM24.1,4.2s0,0,0,0c0,0,0,0,0,0s0,0,0,0c0,0,0,0,0,0,0,0,0,0,0,0h.2c0-.1,0-.3,0-.3,0,0,0,0,0,0,0,0,0,0,0,0,0,0,0,0,0,0,0,0,0,0,0,0,0,0,0,0,0,0,0,0,0,0,0,0s0,0,0,0c0,0,0,0,0,0,0,0,0,0,0,0h0s0,.2,0,.2ZM24.1,2.6h0s0,0,0,0h.1s0,0,0,0h0c0,.1,0,.1,0,.1h0s0-.1,0-.1h0ZM24.2,2.7s0,0,0,0c0,0,0,0,0,0h0c0,0,0,0,0,0,0,0,0,0,0,0s0,0,0,0,0,0,0,0c0,0,0,0,0,0,0,0,0,0,0,0h0s0,0,0,0ZM24.6,3h-.1c0,0,0,0,0,0h-.1c0,0,0-.2,0-.2h.1c0-.1,0,0,0,0h.1c0,0,0,.2,0,.2h0ZM24.5,2.9s0,0,0,0c0,0,0,0,0,0,0,0,0,0,0,0h0c0,0,0,.1,0,.1,0,0,0,0,0,0,0,0,0,0,0,0,0,0,0,0,0,0,0,0,0,0,0,0s0,0,.1,0h0s0,0,0,0ZM24.9,3.8h-.2c0,0,0,0,0,0h-.2c0-.1-.1-.3-.1-.3l.2-.2h.1c0,0,.2.2.2.2v.2s0,0,0,0ZM24.5,3.1h.2s0,0,0,0h.2s.1.2.1.2v.2h-.4c0,0,0-.2,0-.2h0ZM24.9,3.6s0,0,0,0c0,0,0,0,0,0s0,0,0,0,0,0,0,0c0,0,0,0,0,0h-.1c0,0,0,.2,0,.2,0,0,0,0,0,0,0,0,0,0,0,0,0,0,0,0,0,0s0,0,0,0,0,0,0,0c0,0,0,0,0,0,0,0,0,0,0,0h0s0-.1,0-.1ZM24.6,3.3s0,0,0,0c0,0,0,0,0,0,0,0,0,0,0,0s0,0,0,0c0,0,0,0,0,0h0c0-.1,0-.2,0-.2,0,0,0,0,0,0,0,0,0,0,0,0s0,0,0,0,0,0,0,0c0,0,0,0,0,0,0,0,0,0,0,0s0,0,0,0h0s0,.1,0,.1ZM24.8,4h.2s0-.1,0-.1h.3c0,0,.2.2.2.2l-.2.3h-.2s-.3,0-.3,0v-.2c-.1,0,0-.1,0-.1ZM25,4.3h0s0,0,0,0,0,0,0,0h0s0,0,0,0c0,0,0,0,0,0s0,0,0,0v-.2c.1,0,0-.1,0-.1,0,0,0,0,0,0,0,0,0,0,0,0s0,0,0,0c0,0,0,0,0,0,0,0,0,0,0,0,0,0,0,0,0,0,0,0,0,0,0,0s0,0,0,0c0,0,0,0,0,0h0c0,0,0,.2,0,.2Z"/>
        </g>
      </g>
      <g id="Scree-2" data-name="Scree" class="cls-1">
        <g class="cls-1">
          <path class="cls-2" d="M39.4,3.8h.2c0,.1,0,0,0,0h.3c0,.1.1.4.1.4l-.3.2h-.2c0,0-.2-.2-.2-.2v-.2s0-.1,0-.1ZM39.5,4.1s0,0,0,0c0,0,0,0,0,0s0,0,0,0c0,0,0,0,0,0,0,0,0,0,0,0h.2c0-.1,0-.3,0-.3,0,0,0,0,0,0,0,0,0,0,0,0,0,0,0,0,0,0,0,0,0,0,0,0,0,0,0,0,0,0,0,0,0,0,0,0s0,0,0,0c0,0,0,0,0,0,0,0,0,0,0,0h0s0,.2,0,.2ZM40.2,3.7h-.2s0,0,0,0h-.2s-.2-.2-.2-.2l.2-.2h.2s.2,0,.2,0v.2c0,0,0,0,0,0ZM40,3.4s0,0,0,0,0,0,0,0,0,0,0,0c0,0,0,0,0,0,0,0,0,0,0,0h-.1c0,.1,0,.2,0,.2,0,0,0,0,0,0,0,0,0,0,0,0,0,0,0,0,0,0,0,0,0,0,0,0s0,0,0,0c0,0,0,0,0,0,0,0,0,0,0,0,0,0,0,0,0,0,0,0,0,0,0,0h0s0-.1,0-.1ZM39.9,3h.1c0,0,0,0,0,0h.2c0,0,0,.2,0,.2l-.2.2h-.1c0,0-.2-.2-.2-.2v-.2s0,0,0,0ZM40,3.2s0,0,0,0c0,0,0,0,0,0s0,0,0,0c0,0,0,0,0,0,0,0,0,0,0,0h.1c0,0,0-.2,0-.2,0,0,0,0,0,0,0,0,0,0,0,0,0,0,0,0,0,0,0,0,0,0,0,0s0,0,0,0,0,0,0,0c0,0,0,0,0,0h0s0,.1,0,.1ZM40.4,2.9h-.1s0,0,0,0h-.1s0-.1,0-.1v-.2c0,0,.2,0,.2,0h.1s0,.1,0,.1h0ZM40.3,2.8s0,0,0,0c0,0,0,0,0,0,0,0,0,0,0,0h0c0,0,0,.1,0,.1,0,0,0,0,0,0,0,0,0,0,0,0s0,0,0,0c0,0,0,0,0,0,0,0,0,0,0,0,0,0,0,0,0,0,0,0,0,0,0,0h0s0,0,0,0ZM40.1,3.9h.2s0-.1,0-.1h.3c0,0,.2.2.2.2l-.2.3h-.2s-.3,0-.3,0v-.2c-.1,0,0-.1,0-.1ZM40.7,3.8h-.2c0,0,0,0,0,0h-.2c0-.1-.1-.3-.1-.3l.2-.2h.2c0,0,.2.2.2.2v.2s0,0,0,0ZM40.3,4.2s0,0,0,0c0,0,0,0,0,0s0,0,0,0c0,0,0,0,0,0,0,0,0,0,0,0v-.2c.1,0,0-.1,0-.1,0,0,0,0,0,0,0,0,0,0,0,0,0,0,0,0,0,0,0,0,0,0,0,0,0,0,0,0,0,0,0,0,0,0,0,0,0,0,0,0,0,0s0,0,0,0,0,0,0,0h0c0,0,0,.2,0,.2ZM40.3,2.5h0s0,0,0,0h0c0,0,0,.1,0,.1h0c0,0,0,0,0,0h0c0,0,0-.1,0-.1h0ZM40.7,3.5s0,0,0,0c0,0,0,0,0,0s0,0,0,0c0,0,0,0,0,0,0,0,0,0,0,0h-.1c0,0,0,.2,0,.2,0,0,0,0,0,0,0,0,0,0,0,0,0,0,0,0,0,0,0,0,0,0,0,0,0,0,0,0,0,0,0,0,0,0,0,0s0,0,0,0c0,0,0,0,0,0,0,0,0,0,0,0h0s0-.1,0-.1ZM40.3,2.6s0,0,0,0c0,0,0,0,0,0s0,0,0,0h0s0,0,0,0c0,0,0,0,0,0,0,0,0,0,0,0,0,0,0,0,0,0,0,0,0,0,0,0s0,0,0,0h0s0,0,0,0ZM40.6,2.5h0s0,0,0,0h0s0,0,0,0h0c0,0,0,0,0,0h0s0,0,0,0h0ZM40.4,3.1h.2s0,0,0,0h.2s.1.2.1.2v.2h-.5c0,0,0-.2,0-.2h0ZM40.5,2.4h0s0,0,0,0h0s0,0,0,0c0,0,0,0,0,0,0,0,0,0,0,0h0s0,0,0,0c0,0,0,0,0,0h0s0,0,0,0ZM40.8,3h-.1c0,0,0,0,0,0h-.1c0,0,0-.2,0-.2h.1c0-.1,0,0,0,0h.1c0,0,0,.2,0,.2h0ZM40.5,3.3h0s0,0,0,0,0,0,0,0c0,0,0,0,0,0h0c0-.1,0-.2,0-.2,0,0,0,0,0,0,0,0,0,0,0,0s0,0,0,0c0,0,0,0,0,0,0,0,0,0,0,0,0,0,0,0,0,0,0,0,0,0,0,0h0s0,.1,0,.1ZM40.7,2.8s0,0,0,0c0,0,0,0,0,0s0,0,0,0h0c0,0,0,.1,0,.1,0,0,0,0,0,0,0,0,0,0,0,0,0,0,0,0,0,0,0,0,0,0,0,0,0,0,0,0,.1,0h0s0,0,0,0ZM40.5,2.6h0s0,0,0,0h.1s0,0,0,0h0c0,.1,0,.1,0,.1h0s0-.1,0-.1h0ZM40.7,2.5h0s0,0,0,0h0s0,0,0,0h0c0,0,.1,0,.1,0h0c0,0,0,0,0,0ZM40.6,2.7h.1s0,0,0,0h0s0,0,0,0c0,0,0,0,0,0s0,0,0,0c0,0,0,0,0,0,0,0,0,0,0,0h0s0,0,0,0ZM40.7,2.4s0,0,0,0,0,0,0,0,0,0,0,0h0s0,0,0,0c0,0,0,0,0,0,0,0,0,0,0,0,0,0,0,0,0,0,0,0,0,0,0,0,0,0,0,0,0,0h0s0,0,0,0ZM41,2.5h0s0,0,0,0h0s0,0,0,0h0c0,0,0,0,0,0h0s0,0,0,0h0ZM41.4,3.7h-.2s0,0,0,0h-.2s-.2-.2-.2-.2l.2-.2h.2s.2,0,.2,0v.2c0,0,0,.1,0,.1ZM41.2,2.9h-.1s0,0,0,0h-.1s0-.1,0-.1v-.2c0,0,.2,0,.2,0h.1s0,.1,0,.1h0ZM40.9,2.4h0s0,0,0,0h0s0,0,0,0c0,0,0,0,0,0,0,0,0,0,0,0,0,0,0,0,0,0,0,0,0,0,0,0h0s0,0,0,0ZM40.8,2.5h0s0,0,0,0h0c0,0,0,.1,0,.1h0c0,0,0,0,0,0h0c0,0,0-.1,0-.1h0ZM40.9,2.6s0,0,0,0c0,0,0,0,0,0s0,0,0,0h0s0,0,0,0c0,0,0,0,0,0,0,0,0,0,0,0,0,0,0,0,0,0,0,0,0,0,0,0s0,0,0,0h0s0,0,0,0ZM41.1,2.8s0,0,0,0c0,0,0,0,0,0h0c0,0,0,.1,0,.1,0,0,0,0,0,0s0,0,0,0,0,0,0,0c0,0,0,0,0,0,0,0,0,0,0,0,0,0,0,0,0,0,0,0,0,0,0,0h0s0,0,0,0ZM41.2,3.4s0,0,0,0c0,0,0,0,0,0,0,0,0,0,0,0,0,0,0,0,0,0,0,0,0,0,0,0h-.1c0,.1,0,.2,0,.2,0,0,0,0,0,0,0,0,0,0,0,0,0,0,0,0,0,0,0,0,0,0,0,0,0,0,0,0,0,0,0,0,0,0,0,0,0,0,0,0,0,0,0,0,0,0,0,0,0,0,0,0,0,0h0s0-.1,0-.1ZM40.9,3h.1c0,0,0,0,0,0h.2c0,0,0,.2,0,.2l-.2.2h-.1c0,0-.2-.2-.2-.2v-.2s0,0,0,0ZM41,3.8h.2c0,.1,0,0,0,0h.3c0,.1.1.4.1.4l-.3.2h-.2c0,0-.2-.2-.2-.2v-.2s0-.1,0-.1ZM41.1,2.5h0s0,0,0,0h0s0,0,0,0h0c0,0,0,0,0,0h0s0,0,0,0h0ZM41,3.2s0,0,0,0c0,0,0,0,0,0s0,0,0,0c0,0,0,0,0,0,0,0,0,0,0,0h.1c0,0,0-.2,0-.2,0,0,0,0,0,0,0,0,0,0,0,0,0,0,0,0,0,0,0,0,0,0,0,0s0,0,0,0,0,0,0,0,0,0,0,0h0s0,.1,0,.1ZM41.1,2.4s0,0,0,0c0,0,0,0,0,0h0s0,0,0,0c0,0,0,0,0,0s0,0,0,0,0,0,0,0c0,0,0,0,0,0,0,0,0,0,0,0h0s0,0,0,0ZM41.1,4.1s0,0,0,0c0,0,0,0,0,0s0,0,0,0c0,0,0,0,0,0,0,0,0,0,0,0h.2c0-.1,0-.3,0-.3,0,0,0,0,0,0,0,0,0,0,0,0,0,0,0,0,0,0s0,0,0,0c0,0,0,0,0,0,0,0,0,0,0,0s0,0,0,0c0,0,0,0,0,0s0,0,0,0h0s0,.2,0,.2ZM41.1,2.6h0s0,0,0,0h.1s0,0,0,0h0c0,.1,0,.1,0,.1h0s0-.1,0-.1h0ZM41.1,2.7s0,0,0,0c0,0,0,0,0,0h0c0,0,0,0,0,0,0,0,0,0,0,0,0,0,0,0,0,0s0,0,0,0c0,0,0,0,0,0,0,0,0,0,0,0h0s0,0,0,0ZM41.5,3h-.1c0,0,0,0,0,0h-.1c0,0,0-.2,0-.2h.1c0-.1,0,0,0,0h.1c0,0,0,.2,0,.2h0ZM41.5,2.8s0,0,0,0c0,0,0,0,0,0,0,0,0,0,0,0h0c0,0,0,.1,0,.1,0,0,0,0,0,0,0,0,0,0,0,0,0,0,0,0,0,0,0,0,0,0,0,0s0,0,.1,0h0s0,0,0,0ZM41.9,3.8h-.2c0,0,0,0,0,0h-.2c0-.1-.1-.3-.1-.3l.2-.2h.1c0,0,.2.2.2.2v.2s0,0,0,0ZM41.4,3.1h.2s0,0,0,0h.2s.1.2.1.2v.2h-.4c0,0,0-.2,0-.2h0ZM41.9,3.5s0,0,0,0c0,0,0,0,0,0s0,0,0,0c0,0,0,0,0,0,0,0,0,0,0,0h-.1c0,0,0,.2,0,.2,0,0,0,0,0,0,0,0,0,0,0,0,0,0,0,0,0,0,0,0,0,0,0,0s0,0,0,0c0,0,0,0,0,0,0,0,0,0,0,0h0s0-.1,0-.1ZM41.5,3.3s0,0,0,0c0,0,0,0,0,0s0,0,0,0,0,0,0,0c0,0,0,0,0,0h0c0-.1,0-.2,0-.2,0,0,0,0,0,0,0,0,0,0,0,0s0,0,0,0,0,0,0,0c0,0,0,0,0,0,0,0,0,0,0,0,0,0,0,0,0,0h0s0,.1,0,.1ZM41.7,3.9h.2s0-.1,0-.1h.3c0,0,.2.2.2.2l-.2.3h-.2s-.3,0-.3,0v-.2c-.1,0,0-.1,0-.1ZM41.9,4.2h0s0,0,0,0c0,0,0,0,0,0h0s0,0,0,0c0,0,0,0,0,0s0,0,0,0v-.2c.1,0,0-.1,0-.1,0,0,0,0,0,0,0,0,0,0,0,0,0,0,0,0,0,0s0,0,0,0c0,0,0,0,0,0,0,0,0,0,0,0,0,0,0,0,0,0,0,0,0,0,0,0,0,0,0,0,0,0h0c0,0,0,.2,0,.2Z"/>
        </g>
      </g>
      <g id="Scree-3" data-name="Scree" class="cls-1">
        <g class="cls-1">
          <path class="cls-2" d="M33.4,11.8h.2c0,.1,0,0,0,0h.3c0,.1.1.4.1.4l-.3.2h-.2c0,0-.2-.2-.2-.2v-.2s0-.1,0-.1ZM33.5,12.1s0,0,0,0c0,0,0,0,0,0s0,0,0,0c0,0,0,0,0,0,0,0,0,0,0,0h.2c0-.1,0-.3,0-.3,0,0,0,0,0,0,0,0,0,0,0,0,0,0,0,0,0,0,0,0,0,0,0,0,0,0,0,0,0,0,0,0,0,0,0,0s0,0,0,0c0,0,0,0,0,0,0,0,0,0,0,0h0s0,.2,0,.2ZM34.2,11.7h-.2s0,0,0,0h-.2s-.2-.2-.2-.2l.2-.2h.2s.2,0,.2,0v.2c0,0,0,0,0,0ZM34,11.4s0,0,0,0,0,0,0,0,0,0,0,0c0,0,0,0,0,0,0,0,0,0,0,0h-.1c0,.1,0,.2,0,.2,0,0,0,0,0,0,0,0,0,0,0,0,0,0,0,0,0,0,0,0,0,0,0,0s0,0,0,0,0,0,0,0c0,0,0,0,0,0,0,0,0,0,0,0,0,0,0,0,0,0h0s0-.1,0-.1ZM33.9,11h.1c0,0,0,0,0,0h.2c0,0,0,.2,0,.2l-.2.2h-.1c0,0-.2-.2-.2-.2v-.2s0,0,0,0ZM34,11.2s0,0,0,0c0,0,0,0,0,0s0,0,0,0c0,0,0,0,0,0,0,0,0,0,0,0h.1c0,0,0-.2,0-.2,0,0,0,0,0,0,0,0,0,0,0,0,0,0,0,0,0,0,0,0,0,0,0,0s0,0,0,0,0,0,0,0,0,0,0,0h0s0,.1,0,.1ZM34.4,10.9h-.1s0,0,0,0h-.1s0-.1,0-.1v-.2c0,0,.2,0,.2,0h.1s0,.1,0,.1h0ZM34.3,10.8s0,0,0,0c0,0,0,0,0,0,0,0,0,0,0,0h0c0,0,0,.1,0,.1,0,0,0,0,0,0,0,0,0,0,0,0s0,0,0,0c0,0,0,0,0,0,0,0,0,0,0,0,0,0,0,0,0,0,0,0,0,0,0,0h0s0,0,0,0ZM34.1,11.9h.2s0-.1,0-.1h.3c0,0,.2.2.2.2l-.2.3h-.2s-.3,0-.3,0v-.2c-.1,0,0-.1,0-.1ZM34.7,11.8h-.2c0,0,0,0,0,0h-.2c0-.1-.1-.3-.1-.3l.2-.2h.2c0,0,.2.2.2.2v.2s0,0,0,0ZM34.3,12.2s0,0,0,0c0,0,0,0,0,0s0,0,0,0c0,0,0,0,0,0,0,0,0,0,0,0v-.2c.1,0,0-.1,0-.1,0,0,0,0,0,0,0,0,0,0,0,0,0,0,0,0,0,0,0,0,0,0,0,0,0,0,0,0,0,0,0,0,0,0,0,0,0,0,0,0,0,0s0,0,0,0,0,0,0,0h0c0,0,0,.2,0,.2ZM34.3,10.5h0s0,0,0,0h0c0,0,0,.1,0,.1h0c0,0,0,0,0,0h0c0,0,0-.1,0-.1h0ZM34.7,11.5s0,0,0,0c0,0,0,0,0,0s0,0,0,0c0,0,0,0,0,0,0,0,0,0,0,0h-.1c0,0,0,.2,0,.2,0,0,0,0,0,0,0,0,0,0,0,0,0,0,0,0,0,0s0,0,0,0c0,0,0,0,0,0,0,0,0,0,0,0s0,0,0,0c0,0,0,0,0,0,0,0,0,0,0,0h0s0-.1,0-.1ZM34.3,10.6s0,0,0,0c0,0,0,0,0,0s0,0,0,0h0s0,0,0,0c0,0,0,0,0,0,0,0,0,0,0,0,0,0,0,0,0,0,0,0,0,0,0,0s0,0,0,0h0s0,0,0,0ZM34.6,10.5h0s0,0,0,0h0s0,0,0,0h0c0,0,0,0,0,0h0s0,0,0,0h0ZM34.4,11.1h.2s0,0,0,0h.2s.1.2.1.2v.2h-.5c0,0,0-.2,0-.2h0ZM34.5,10.4h0s0,0,0,0h0s0,0,0,0c0,0,0,0,0,0,0,0,0,0,0,0h0s0,0,0,0c0,0,0,0,0,0h0s0,0,0,0ZM34.8,11h-.1c0,0,0,0,0,0h-.1c0,0,0-.2,0-.2h.1c0-.1,0,0,0,0h.1c0,0,0,.2,0,.2h0ZM34.5,11.3h0s0,0,0,0,0,0,0,0c0,0,0,0,0,0h0c0-.1,0-.2,0-.2,0,0,0,0,0,0,0,0,0,0,0,0s0,0,0,0c0,0,0,0,0,0,0,0,0,0,0,0,0,0,0,0,0,0,0,0,0,0,0,0h0s0,.1,0,.1ZM34.7,10.8s0,0,0,0c0,0,0,0,0,0s0,0,0,0h0c0,0,0,.1,0,.1,0,0,0,0,0,0,0,0,0,0,0,0,0,0,0,0,0,0s0,0,0,0c0,0,0,0,.1,0h0s0,0,0,0ZM34.5,10.6h0s0,0,0,0h.1s0,0,0,0h0c0,.1,0,.1,0,.1h0s0,0,0,0h0ZM34.7,10.5h0s0,0,0,0h0s0-.1,0-.1h0c0,0,.1,0,.1,0h0c0,0,0,0,0,0ZM34.6,10.7h.1s0,0,0,0h0s0,0,0,0c0,0,0,0,0,0s0,0,0,0c0,0,0,0,0,0,0,0,0,0,0,0h0s0,0,0,0ZM34.7,10.4s0,0,0,0,0,0,0,0,0,0,0,0h0s0,0,0,0c0,0,0,0,0,0,0,0,0,0,0,0,0,0,0,0,0,0,0,0,0,0,0,0,0,0,0,0,0,0h0s0,0,0,0ZM35,10.5h0s0,0,0,0h0s0,0,0,0h0c0,0,0,0,0,0h0s0,0,0,0h0ZM35.4,11.7h-.2s0,0,0,0h-.2s-.2-.2-.2-.2l.2-.2h.2s.2,0,.2,0v.2c0,0,0,.1,0,.1ZM35.2,10.9h-.1s0,0,0,0h-.1s0-.1,0-.1v-.2c0,0,.2,0,.2,0h.1s0,.1,0,.1h0ZM34.9,10.4h0s0,0,0,0h0s0,0,0,0c0,0,0,0,0,0,0,0,0,0,0,0,0,0,0,0,0,0,0,0,0,0,0,0h0s0,0,0,0ZM34.8,10.5h0s0,0,0,0h0c0,0,0,.1,0,.1h-.1c0,0,0,0,0,0h0c0,0,0-.1,0-.1h0ZM34.9,10.6s0,0,0,0c0,0,0,0,0,0s0,0,0,0h0s0,0,0,0c0,0,0,0,0,0,0,0,0,0,0,0,0,0,0,0,0,0,0,0,0,0,0,0s0,0,0,0h0s0,0,0,0ZM35.1,10.8s0,0,0,0c0,0,0,0,0,0h0c0,0,0,.1,0,.1,0,0,0,0,0,0,0,0,0,0,0,0s0,0,0,0c0,0,0,0,0,0,0,0,0,0,0,0,0,0,0,0,0,0,0,0,0,0,0,0h0s0,0,0,0ZM35.2,11.4s0,0,0,0c0,0,0,0,0,0s0,0,0,0c0,0,0,0,0,0,0,0,0,0,0,0h-.1c0,.1,0,.2,0,.2,0,0,0,0,0,0,0,0,0,0,0,0,0,0,0,0,0,0,0,0,0,0,0,0,0,0,0,0,0,0,0,0,0,0,0,0,0,0,0,0,0,0,0,0,0,0,0,0,0,0,0,0,0,0h0s0-.1,0-.1ZM34.9,11h.1c0,0,0,0,0,0h.2c0,0,0,.2,0,.2l-.2.2h-.1c0,0-.2-.2-.2-.2v-.2s0,0,0,0ZM35,11.8h.2c0,.1,0,0,0,0h.3c0,.1.1.4.1.4l-.3.2h-.2c0,0-.2-.2-.2-.2v-.2s0-.1,0-.1ZM35.1,10.5h0s0,0,0,0h0s0,0,0,0h0c0,0,0,0,0,0h0s0,.1,0,.1h0ZM35,11.2s0,0,0,0c0,0,0,0,0,0s0,0,0,0c0,0,0,0,0,0,0,0,0,0,0,0h.1c0,0,0-.2,0-.2,0,0,0,0,0,0,0,0,0,0,0,0,0,0,0,0,0,0,0,0,0,0,0,0s0,0,0,0,0,0,0,0,0,0,0,0h0s0,.1,0,.1ZM35.1,10.4s0,0,0,0c0,0,0,0,0,0h0s0,0,0,0c0,0,0,0,0,0s0,0,0,0,0,0,0,0c0,0,0,0,0,0,0,0,0,0,0,0h0s0,0,0,0ZM35.1,12.1s0,0,0,0c0,0,0,0,0,0s0,0,0,0c0,0,0,0,0,0,0,0,0,0,0,0h.2c0-.1,0-.3,0-.3,0,0,0,0,0,0,0,0,0,0,0,0,0,0,0,0,0,0s0,0,0,0c0,0,0,0,0,0,0,0,0,0,0,0s0,0,0,0,0,0,0,0c0,0,0,0,0,0h0s0,.2,0,.2ZM35.1,10.6h0s0,0,0,0h.1s0,0,0,0h0c0,.1,0,.1,0,.1h0s0,0,0,0h0ZM35.1,10.7s0,0,0,0c0,0,0,0,0,0h0c0,0,0,0,0,0,0,0,0,0,0,0,0,0,0,0,0,0s0,0,0,0c0,0,0,0,0,0,0,0,0,0,0,0h0s0,0,0,0ZM35.5,11h-.1c0,0,0,0,0,0h-.1c0,0,0-.2,0-.2h.1c0-.1,0,0,0,0h.1c0,0,0,.2,0,.2h0ZM35.5,10.8s0,0,0,0c0,0,0,0,0,0,0,0,0,0,0,0h0c0,0,0,.1,0,.1,0,0,0,0,0,0,0,0,0,0,0,0,0,0,0,0,0,0,0,0,0,0,0,0s0,0,.1,0h0s0,0,0,0ZM35.9,11.8h-.2c0,0,0,0,0,0h-.2c0-.1-.1-.3-.1-.3l.2-.2h.1c0,0,.2.2.2.2v.2s0,0,0,0ZM35.4,11.1h.2s0,0,0,0h.2s.1.2.1.2v.2h-.4c0,0,0-.2,0-.2h0ZM35.9,11.5s0,0,0,0c0,0,0,0,0,0s0,0,0,0c0,0,0,0,0,0,0,0,0,0,0,0h-.1c0,0,0,.2,0,.2,0,0,0,0,0,0,0,0,0,0,0,0,0,0,0,0,0,0,0,0,0,0,0,0s0,0,0,0c0,0,0,0,0,0,0,0,0,0,0,0h0s0-.1,0-.1ZM35.5,11.3s0,0,0,0c0,0,0,0,0,0s0,0,0,0,0,0,0,0c0,0,0,0,0,0h0c0-.1,0-.2,0-.2,0,0,0,0,0,0,0,0,0,0,0,0s0,0,0,0,0,0,0,0c0,0,0,0,0,0,0,0,0,0,0,0,0,0,0,0,0,0h0s0,.1,0,.1ZM35.7,11.9h.2s0-.1,0-.1h.3c0,0,.2.2.2.2l-.2.3h-.2s-.3,0-.3,0v-.2c-.1,0,0-.1,0-.1ZM35.9,12.2h0s0,0,0,0c0,0,0,0,0,0h0s0,0,0,0c0,0,0,0,0,0s0,0,0,0v-.2c.1,0,0-.1,0-.1,0,0,0,0,0,0,0,0,0,0,0,0,0,0,0,0,0,0,0,0,0,0,0,0,0,0,0,0,0,0,0,0,0,0,0,0,0,0,0,0,0,0,0,0,0,0,0,0,0,0,0,0,0,0h0c0,0,0,.2,0,.2Z"/>
        </g>
      </g>
      <g id="Scree-4" data-name="Scree" class="cls-1">
        <g class="cls-1">
          <path class="cls-2" d="M7.4,13.8h.2c0,.1,0,0,0,0h.3c0,.1.1.4.1.4l-.3.2h-.2c0,0-.2-.2-.2-.2v-.2s0-.1,0-.1ZM7.5,14.1s0,0,0,0c0,0,0,0,0,0s0,0,0,0c0,0,0,0,0,0s0,0,0,0h.2c0-.1,0-.3,0-.3,0,0,0,0,0,0s0,0,0,0,0,0,0,0c0,0,0,0,0,0,0,0,0,0,0,0,0,0,0,0,0,0s0,0,0,0c0,0,0,0,0,0,0,0,0,0,0,0h0s0,.2,0,.2ZM8.2,13.7h-.2s0,0,0,0h-.2s-.2-.2-.2-.2l.2-.2h.2s.2,0,.2,0v.2c0,0,0,0,0,0ZM8,13.5s0,0,0,0,0,0,0,0,0,0,0,0c0,0,0,0,0,0,0,0,0,0,0,0h-.1c0,.1,0,.2,0,.2,0,0,0,0,0,0,0,0,0,0,0,0,0,0,0,0,0,0,0,0,0,0,0,0s0,0,0,0,0,0,0,0c0,0,0,0,0,0,0,0,0,0,0,0,0,0,0,0,0,0h0s0-.1,0-.1ZM7.9,13h.1c0,0,0,0,0,0h.2c0,0,0,.2,0,.2l-.2.2h-.1c0,0-.2-.2-.2-.2v-.2s0,0,0,0ZM8,13.2s0,0,0,0c0,0,0,0,0,0s0,0,0,0c0,0,0,0,0,0s0,0,0,0h.1c0,0,0-.2,0-.2,0,0,0,0,0,0s0,0,0,0c0,0,0,0,0,0,0,0,0,0,0,0s0,0,0,0c0,0,0,0,0,0s0,0,0,0h0s0,.1,0,.1ZM8.4,12.9h-.1s0,0,0,0h-.1s0-.1,0-.1v-.2c0,0,.2,0,.2,0h.1s0,.1,0,.1h0ZM8.3,12.8s0,0,0,0,0,0,0,0c0,0,0,0,0,0h0c0,0,0,.1,0,.1,0,0,0,0,0,0,0,0,0,0,0,0s0,0,0,0c0,0,0,0,0,0,0,0,0,0,0,0,0,0,0,0,0,0s0,0,0,0h0s0,0,0,0ZM8.1,13.9h.2s0-.1,0-.1h.3c0,0,.2.2.2.2l-.2.3h-.2s-.3,0-.3,0v-.2c-.1,0,0-.1,0-.1ZM8.7,13.8h-.2c0,0,0,0,0,0h-.2c0-.1-.1-.3-.1-.3l.2-.2h.2c0,0,.2.2.2.2v.2s0,0,0,0ZM8.3,14.3s0,0,0,0c0,0,0,0,0,0s0,0,0,0c0,0,0,0,0,0s0,0,0,0v-.2c.1,0,0-.1,0-.1,0,0,0,0,0,0,0,0,0,0,0,0,0,0,0,0,0,0,0,0,0,0,0,0,0,0,0,0,0,0,0,0,0,0,0,0,0,0,0,0,0,0,0,0,0,0,0,0s0,0,0,0h0c0,0,0,.2,0,.2ZM8.3,12.6h0s0,0,0,0h0c0,0,0,.1,0,.1h-.1c0,0,0,0,0,0h0c0,0,0-.1,0-.1h0ZM8.7,13.5s0,0,0,0,0,0,0,0,0,0,0,0c0,0,0,0,0,0s0,0,0,0h-.1c0,0,0,.2,0,.2,0,0,0,0,0,0s0,0,0,0c0,0,0,0,0,0,0,0,0,0,0,0,0,0,0,0,0,0,0,0,0,0,0,0s0,0,0,0,0,0,0,0,0,0,0,0h0s0-.1,0-.1ZM8.3,12.7s0,0,0,0,0,0,0,0,0,0,0,0h0s0,0,0,0c0,0,0,0,0,0,0,0,0,0,0,0,0,0,0,0,0,0,0,0,0,0,0,0s0,0,0,0h0s0,0,0,0ZM8.6,12.5h0s0,0,0,0h0s0,0,0,0h0c0,0,0,0,0,0h0s0,0,0,0h0ZM8.4,13.1h.2s0,0,0,0h.2s.1.2.1.2v.2h-.5c0,0,0-.2,0-.2h0ZM8.5,12.4h0s0,0,0,0h0s0,0,0,0c0,0,0,0,0,0,0,0,0,0,0,0h0s0,0,0,0c0,0,0,0,0,0h0s0,0,0,0ZM8.8,13h-.1c0,0,0,0,0,0h-.1c0,0,0-.2,0-.2h.1c0-.1,0,0,0,0h.1c0,0,0,.2,0,.2h0ZM8.5,13.3h0s0,0,0,0c0,0,0,0,0,0,0,0,0,0,0,0h0c0-.1,0-.2,0-.2,0,0,0,0,0,0,0,0,0,0,0,0s0,0,0,0,0,0,0,0c0,0,0,0,0,0,0,0,0,0,0,0,0,0,0,0,0,0h0s0,.1,0,.1ZM8.7,12.9s0,0,0,0c0,0,0,0,0,0s0,0,0,0h0c0,0,0,.1,0,.1,0,0,0,0,0,0,0,0,0,0,0,0,0,0,0,0,0,0,0,0,0,0,0,0s0,0,.1,0h0s0,0,0,0ZM8.5,12.6h0s0,0,0,0h.1s0,0,0,0h0c0,.1,0,.1,0,.1h0s0,0,0,0h0ZM8.7,12.6h0s0,0,0,0h0s0-.1,0-.1h0c0,0,.1,0,.1,0h0c0,0,0,0,0,0ZM8.6,12.7h.1s0,0,0,0h0s0,0,0,0c0,0,0,0,0,0s0,0,0,0c0,0,0,0,0,0,0,0,0,0,0,0h0s0,0,0,0ZM8.7,12.5s0,0,0,0c0,0,0,0,0,0,0,0,0,0,0,0h0s0,0,0,0c0,0,0,0,0,0s0,0,0,0c0,0,0,0,0,0,0,0,0,0,0,0,0,0,0,0,0,0h0s0,0,0,0ZM9,12.5h0s0,0,0,0h0s0,0,0,0h0c0,0,0,0,0,0h0s0,0,0,0h0ZM9.4,13.7h-.2s0,0,0,0h-.2s-.2-.2-.2-.2l.2-.2h.2s.2,0,.2,0v.2c0,0,0,.1,0,.1ZM9.2,13h-.1s0,0,0,0h-.1s0-.1,0-.1v-.2c0,0,.2,0,.2,0h.1s0,.1,0,.1h0ZM8.9,12.4h0s0,0,0,0h0s0,0,0,0c0,0,0,0,0,0,0,0,0,0,0,0s0,0,0,0c0,0,0,0,0,0h0s0,0,0,0ZM8.8,12.6h0s0,0,0,0h0c0,0,0,.1,0,.1h-.1c0,0,0,0,0,0h0c0,0,0-.1,0-.1h0ZM8.9,12.7s0,0,0,0,0,0,0,0,0,0,0,0h0s0,0,0,0c0,0,0,0,0,0,0,0,0,0,0,0,0,0,0,0,0,0,0,0,0,0,0,0s0,0,0,0h0s0,0,0,0ZM9.1,12.8s0,0,0,0c0,0,0,0,0,0h0c0,0,0,.1,0,.1,0,0,0,0,0,0,0,0,0,0,0,0s0,0,0,0c0,0,0,0,0,0,0,0,0,0,0,0,0,0,0,0,0,0s0,0,0,0h0s0,0,0,0ZM9.2,13.5s0,0,0,0,0,0,0,0c0,0,0,0,0,0s0,0,0,0,0,0,0,0h-.1c0,.1,0,.2,0,.2,0,0,0,0,0,0,0,0,0,0,0,0,0,0,0,0,0,0,0,0,0,0,0,0,0,0,0,0,0,0s0,0,0,0c0,0,0,0,0,0,0,0,0,0,0,0,0,0,0,0,0,0h0s0-.1,0-.1ZM8.9,13h.1c0,0,0,0,0,0h.2c0,0,0,.2,0,.2l-.2.2h-.1c0,0-.2-.2-.2-.2v-.2s0,0,0,0ZM9,13.8h.2c0,.1,0,0,0,0h.3c0,.1.1.4.1.4l-.3.2h-.2c0,0-.2-.2-.2-.2v-.2s0-.1,0-.1ZM9.1,12.6h0s0,0,0,0h0s0,0,0,0h0c0,0,0,0,0,0h0s0,.1,0,.1h0ZM9,13.2s0,0,0,0c0,0,0,0,0,0s0,0,0,0,0,0,0,0,0,0,0,0h.1c0,0,0-.2,0-.2,0,0,0,0,0,0,0,0,0,0,0,0,0,0,0,0,0,0,0,0,0,0,0,0s0,0,0,0c0,0,0,0,0,0,0,0,0,0,0,0h0s0,.1,0,.1ZM9.1,12.5s0,0,0,0c0,0,0,0,0,0h0s0,0,0,0c0,0,0,0,0,0s0,0,0,0,0,0,0,0c0,0,0,0,0,0,0,0,0,0,0,0h0s0,0,0,0ZM9.1,14.1s0,0,0,0c0,0,0,0,0,0s0,0,0,0c0,0,0,0,0,0,0,0,0,0,0,0h.2c0-.1,0-.3,0-.3,0,0,0,0,0,0,0,0,0,0,0,0,0,0,0,0,0,0,0,0,0,0,0,0,0,0,0,0,0,0,0,0,0,0,0,0s0,0,0,0c0,0,0,0,0,0,0,0,0,0,0,0h0s0,.2,0,.2ZM9.1,12.6h0s0,0,0,0h.1s0,0,0,0h0c0,.1,0,.1,0,.1h0s0-.1,0-.1h0ZM9.1,12.7s0,0,0,0c0,0,0,0,0,0h0c0,0,0,0,0,0,0,0,0,0,0,0s0,0,0,0,0,0,0,0c0,0,0,0,0,0,0,0,0,0,0,0h0s0,0,0,0ZM9.5,13h-.1c0,0,0,0,0,0h-.1c0,0,0-.2,0-.2h.1c0-.1,0,0,0,0h.1c0,0,0,.2,0,.2h0ZM9.5,12.9s0,0,0,0c0,0,0,0,0,0,0,0,0,0,0,0h0c0,0,0,.1,0,.1,0,0,0,0,0,0,0,0,0,0,0,0,0,0,0,0,0,0s0,0,0,0,0,0,.1,0h0s0,0,0,0ZM9.9,13.8h-.2c0,0,0,0,0,0h-.2c0-.1-.1-.3-.1-.3l.2-.2h.1c0,0,.2.2.2.2v.2s0,0,0,0ZM9.4,13.1h.2s0,0,0,0h.2s.1.2.1.2v.2h-.4c0,0,0-.2,0-.2h0ZM9.9,13.5s0,0,0,0c0,0,0,0,0,0s0,0,0,0,0,0,0,0c0,0,0,0,0,0h-.1c0,0,0,.2,0,.2,0,0,0,0,0,0,0,0,0,0,0,0,0,0,0,0,0,0s0,0,0,0,0,0,0,0c0,0,0,0,0,0s0,0,0,0h0s0-.1,0-.1ZM9.5,13.3s0,0,0,0c0,0,0,0,0,0,0,0,0,0,0,0s0,0,0,0c0,0,0,0,0,0h0c0-.1,0-.2,0-.2,0,0,0,0,0,0s0,0,0,0,0,0,0,0c0,0,0,0,0,0,0,0,0,0,0,0,0,0,0,0,0,0s0,0,0,0h0s0,.1,0,.1ZM9.7,13.9h.2s0-.1,0-.1h.3c0,0,.2.2.2.2l-.2.3h-.2s-.3,0-.3,0v-.2c-.1,0,0-.1,0-.1ZM9.9,14.3h0s0,0,0,0c0,0,0,0,0,0h0s0,0,0,0,0,0,0,0,0,0,0,0v-.2c.1,0,0-.1,0-.1,0,0,0,0,0,0,0,0,0,0,0,0,0,0,0,0,0,0,0,0,0,0,0,0,0,0,0,0,0,0,0,0,0,0,0,0,0,0,0,0,0,0,0,0,0,0,0,0s0,0,0,0h0c0,0,0,.2,0,.2Z"/>
        </g>
      </g>
      <g id="Scree-5" data-name="Scree" class="cls-1">
        <g class="cls-1">
          <path class="cls-2" d="M2.4,23.7h.2c0,.1,0,0,0,0h.3c0,.1.1.4.1.4l-.3.2h-.2c0,0-.2-.2-.2-.2v-.2s0-.1,0-.1ZM2.5,24s0,0,0,0,0,0,0,0,0,0,0,0c0,0,0,0,0,0s0,0,0,0h.2c0-.1,0-.3,0-.3,0,0,0,0,0,0s0,0,0,0,0,0,0,0c0,0,0,0,0,0,0,0,0,0,0,0,0,0,0,0,0,0s0,0,0,0,0,0,0,0c0,0,0,0,0,0h0s0,.2,0,.2ZM3.2,23.6h-.2s0,0,0,0h-.2s-.2-.2-.2-.2l.2-.2h.2s.2,0,.2,0v.2c0,0,0,0,0,0ZM3,23.3s0,0,0,0c0,0,0,0,0,0s0,0,0,0c0,0,0,0,0,0s0,0,0,0h-.1c0,.1,0,.2,0,.2,0,0,0,0,0,0,0,0,0,0,0,0,0,0,0,0,0,0,0,0,0,0,0,0s0,0,0,0,0,0,0,0c0,0,0,0,0,0,0,0,0,0,0,0,0,0,0,0,0,0h0s0-.1,0-.1ZM2.9,22.9h.1c0,0,0,0,0,0h.2c0,0,0,.2,0,.2l-.2.2h-.1c0,0-.2-.2-.2-.2v-.2s0,0,0,0ZM3,23.1s0,0,0,0c0,0,0,0,0,0s0,0,0,0c0,0,0,0,0,0s0,0,0,0h.1c0,0,0-.2,0-.2,0,0,0,0,0,0s0,0,0,0c0,0,0,0,0,0s0,0,0,0,0,0,0,0c0,0,0,0,0,0s0,0,0,0h0s0,.1,0,.1ZM3.4,22.8h-.1s0,0,0,0h-.1s0-.1,0-.1v-.2c0,0,.2,0,.2,0h.1s0,.1,0,.1h0ZM3.3,22.7s0,0,0,0,0,0,0,0c0,0,0,0,0,0h0c0,0,0,.1,0,.1,0,0,0,0,0,0,0,0,0,0,0,0s0,0,0,0c0,0,0,0,0,0,0,0,0,0,0,0,0,0,0,0,0,0s0,0,0,0h0s0,0,0,0ZM3.1,23.8h.2s0-.1,0-.1h.3c0,0,.2.2.2.2l-.2.3h-.2s-.3,0-.3,0v-.2c-.1,0,0-.1,0-.1ZM3.7,23.7h-.2c0,0,0,0,0,0h-.2c0-.1,0-.3,0-.3l.2-.2h.2c0,0,.2.2.2.2v.2s0,0,0,0ZM3.3,24.1s0,0,0,0c0,0,0,0,0,0s0,0,0,0c0,0,0,0,0,0s0,0,0,0v-.2c.1,0,0-.1,0-.1,0,0,0,0,0,0s0,0,0,0,0,0,0,0,0,0,0,0c0,0,0,0,0,0,0,0,0,0,0,0,0,0,0,0,0,0,0,0,0,0,0,0s0,0,0,0h0c0,0,0,.2,0,.2ZM3.3,22.4h0s0,0,0,0h0c0,0,0,.1,0,.1h0c0,0,0,0,0,0h0c0,0,0-.1,0-.1h0ZM3.7,23.4s0,0,0,0c0,0,0,0,0,0s0,0,0,0c0,0,0,0,0,0,0,0,0,0,0,0h-.1c0,0,0,.2,0,.2,0,0,0,0,0,0s0,0,0,0c0,0,0,0,0,0,0,0,0,0,0,0,0,0,0,0,0,0s0,0,0,0,0,0,0,0c0,0,0,0,0,0,0,0,0,0,0,0h0s0-.1,0-.1ZM3.3,22.5s0,0,0,0,0,0,0,0,0,0,0,0h0s0,0,0,0c0,0,0,0,0,0s0,0,0,0c0,0,0,0,0,0,0,0,0,0,0,0s0,0,0,0h0s0,0,0,0ZM3.6,22.4h0s0,0,0,0h0s0,0,0,0h0c0,0,0,0,0,0h0s0,0,0,0h0ZM3.4,23h.2s0,0,0,0h.2s.1.2.1.2v.2h-.5c0,0,0-.2,0-.2h0ZM3.5,22.3h0s0,0,0,0h0s0,0,0,0c0,0,0,0,0,0s0,0,0,0h0s0,0,0,0c0,0,0,0,0,0h0s0,0,0,0ZM3.8,22.9h0c0,0,0,0,0,0h-.1c0,0,0-.2,0-.2h.1c0-.1,0,0,0,0h.1c0,0,0,.2,0,.2h0ZM3.5,23.2h0s0,0,0,0,0,0,0,0c0,0,0,0,0,0h0c0-.1,0-.2,0-.2,0,0,0,0,0,0,0,0,0,0,0,0s0,0,0,0c0,0,0,0,0,0,0,0,0,0,0,0,0,0,0,0,0,0,0,0,0,0,0,0h0s0,.1,0,.1ZM3.7,22.7s0,0,0,0c0,0,0,0,0,0s0,0,0,0h0c0,0,0,.1,0,.1,0,0,0,0,0,0,0,0,0,0,0,0,0,0,0,0,0,0,0,0,0,0,0,0s0,0,.1,0h0s0,0,0,0ZM3.5,22.5h0s0,0,0,0h.1s0,0,0,0h0c0,.1,0,.1,0,.1h0s0-.1,0-.1h0ZM3.7,22.4h0s0,0,0,0h0s0-.1,0-.1h0c0,0,.1,0,.1,0h0c0,0,0,0,0,0ZM3.6,22.6h.1s0,0,0,0h0s0,0,0,0c0,0,0,0,0,0s0,0,0,0c0,0,0,0,0,0,0,0,0,0,0,0h0s0,0,0,0ZM3.7,22.3s0,0,0,0c0,0,0,0,0,0,0,0,0,0,0,0h0s0,0,0,0c0,0,0,0,0,0,0,0,0,0,0,0,0,0,0,0,0,0,0,0,0,0,0,0,0,0,0,0,0,0h0s0,0,0,0ZM4,22.4h0s0,0,0,0h0s0,0,0,0h0c0,0,0,0,0,0h0s0,0,0,0h0ZM4.4,23.6h-.2s0,0,0,0h-.2s-.2-.2-.2-.2l.2-.2h.2s.2,0,.2,0v.2c0,0,0,.1,0,.1ZM4.2,22.8h-.1s0,0,0,0h-.1s0-.1,0-.1v-.2c0,0,.2,0,.2,0h.1s0,.1,0,.1h0ZM3.9,22.3h0s0,0,0,0h0s0,0,0,0c0,0,0,0,0,0,0,0,0,0,0,0s0,0,0,0c0,0,0,0,0,0h0s0,0,0,0ZM3.8,22.4h0s0,0,0,0h0c0,0,0,.1,0,.1h0c0,0,0,0,0,0h0c0,0,0-.1,0-.1h0ZM3.9,22.5s0,0,0,0,0,0,0,0,0,0,0,0h0s0,0,0,0c0,0,0,0,0,0s0,0,0,0c0,0,0,0,0,0,0,0,0,0,0,0s0,0,0,0h0s0,0,0,0ZM4.1,22.7s0,0,0,0c0,0,0,0,0,0h0c0,0,0,.1,0,.1,0,0,0,0,0,0s0,0,0,0,0,0,0,0c0,0,0,0,0,0,0,0,0,0,0,0,0,0,0,0,0,0,0,0,0,0,0,0h0s0,0,0,0ZM4.2,23.3s0,0,0,0,0,0,0,0c0,0,0,0,0,0s0,0,0,0,0,0,0,0h-.1c0,.1,0,.2,0,.2,0,0,0,0,0,0,0,0,0,0,0,0,0,0,0,0,0,0s0,0,0,0c0,0,0,0,0,0s0,0,0,0c0,0,0,0,0,0,0,0,0,0,0,0,0,0,0,0,0,0h0s0-.1,0-.1ZM3.9,22.9h.1c0,0,0,0,0,0h.2c0,0,0,.2,0,.2l-.2.2h-.1c0,0-.2-.2-.2-.2v-.2s0,0,0,0ZM4,23.7h.2c0,.1,0,0,0,0h.3c0,.1.1.4.1.4l-.3.2h-.2c0,0-.2-.2-.2-.2v-.2s0-.1,0-.1ZM4.1,22.4h0s0,0,0,0h0s0,0,0,0h0c0,0,0,0,0,0h0s0,.1,0,.1h0ZM4,23.1s0,0,0,0c0,0,0,0,0,0s0,0,0,0,0,0,0,0,0,0,0,0h.1c0,0,0-.2,0-.2,0,0,0,0,0,0,0,0,0,0,0,0,0,0,0,0,0,0,0,0,0,0,0,0s0,0,0,0,0,0,0,0c0,0,0,0,0,0h0s0,.1,0,.1ZM4.1,22.3s0,0,0,0c0,0,0,0,0,0h0s0,0,0,0c0,0,0,0,0,0,0,0,0,0,0,0s0,0,0,0c0,0,0,0,0,0,0,0,0,0,0,0h0s0,0,0,0ZM4.1,24s0,0,0,0c0,0,0,0,0,0s0,0,0,0c0,0,0,0,0,0,0,0,0,0,0,0h.2c0-.1,0-.3,0-.3,0,0,0,0,0,0,0,0,0,0,0,0,0,0,0,0,0,0,0,0,0,0,0,0,0,0,0,0,0,0,0,0,0,0,0,0s0,0,0,0c0,0,0,0,0,0,0,0,0,0,0,0h0s0,.2,0,.2ZM4.1,22.5h0s0,0,0,0h.1s0,0,0,0h0c0,.1,0,.1,0,.1h0s0-.1,0-.1h0ZM4.1,22.6s0,0,0,0c0,0,0,0,0,0h0c0,0,0,0,0,0,0,0,0,0,0,0,0,0,0,0,0,0s0,0,0,0c0,0,0,0,0,0,0,0,0,0,0,0h0s0,0,0,0ZM4.5,22.9h0c0,0,0,0,0,0h-.1c0,0,0-.2,0-.2h.1c0-.1,0,0,0,0h.1c0,0,0,.2,0,.2h0ZM4.5,22.7s0,0,0,0c0,0,0,0,0,0,0,0,0,0,0,0h0c0,0,0,.1,0,.1,0,0,0,0,0,0,0,0,0,0,0,0,0,0,0,0,0,0s0,0,0,0,0,0,.1,0h0s0,0,0,0ZM4.9,23.7h-.2c0,0,0,0,0,0h-.2c0-.1-.1-.3-.1-.3l.2-.2h.1c0,0,.2.2.2.2v.2s0,0,0,0ZM4.4,23h.2s0,0,0,0h.2s.1.2.1.2v.2h-.4c0,0,0-.2,0-.2h0ZM4.9,23.4s0,0,0,0,0,0,0,0,0,0,0,0,0,0,0,0c0,0,0,0,0,0h-.1c0,0,0,.2,0,.2,0,0,0,0,0,0,0,0,0,0,0,0,0,0,0,0,0,0,0,0,0,0,0,0s0,0,0,0c0,0,0,0,0,0s0,0,0,0h0s0-.1,0-.1ZM4.5,23.2s0,0,0,0c0,0,0,0,0,0,0,0,0,0,0,0s0,0,0,0c0,0,0,0,0,0h0c0-.1,0-.2,0-.2,0,0,0,0,0,0,0,0,0,0,0,0s0,0,0,0,0,0,0,0c0,0,0,0,0,0,0,0,0,0,0,0s0,0,0,0h0s0,.1,0,.1ZM4.7,23.8h.2s0-.1,0-.1h.3c0,0,.2.2.2.2l-.2.3h-.2s-.3,0-.3,0v-.2c-.1,0,0-.1,0-.1ZM4.9,24.1h0s0,0,0,0c0,0,0,0,0,0h0s0,0,0,0,0,0,0,0,0,0,0,0v-.2c.1,0,0-.1,0-.1,0,0,0,0,0,0,0,0,0,0,0,0s0,0,0,0c0,0,0,0,0,0,0,0,0,0,0,0,0,0,0,0,0,0,0,0,0,0,0,0,0,0,0,0,0,0,0,0,0,0,0,0h0c0,0,0,.2,0,.2Z"/>
        </g>
      </g>
      <g id="Scree-6" data-name="Scree" class="cls-1">
        <g class="cls-1">
          <path class="cls-2" d="M7.4,36.8h.2c0,.1,0,0,0,0h.3c0,.1.1.4.1.4l-.3.2h-.2c0,0-.2-.2-.2-.2v-.2s0-.1,0-.1ZM7.5,37.1s0,0,0,0c0,0,0,0,0,0s0,0,0,0c0,0,0,0,0,0,0,0,0,0,0,0h.2c0-.1,0-.3,0-.3,0,0,0,0,0,0,0,0,0,0,0,0,0,0,0,0,0,0,0,0,0,0,0,0,0,0,0,0,0,0,0,0,0,0,0,0s0,0,0,0c0,0,0,0,0,0s0,0,0,0h0s0,.2,0,.2ZM8.2,36.7h-.2s0,0,0,0h-.2s-.2-.2-.2-.2l.2-.2h.2s.2,0,.2,0v.2c0,0,0,0,0,0ZM8,36.5s0,0,0,0,0,0,0,0,0,0,0,0c0,0,0,0,0,0,0,0,0,0,0,0h-.1c0,.1,0,.2,0,.2,0,0,0,0,0,0,0,0,0,0,0,0,0,0,0,0,0,0,0,0,0,0,0,0s0,0,0,0c0,0,0,0,0,0,0,0,0,0,0,0,0,0,0,0,0,0s0,0,0,0h0s0-.1,0-.1ZM7.9,36h.1c0,0,0,0,0,0h.2c0,0,0,.2,0,.2l-.2.2h-.1c0,0-.2-.2-.2-.2v-.2s0,0,0,0ZM8,36.2s0,0,0,0,0,0,0,0,0,0,0,0c0,0,0,0,0,0,0,0,0,0,0,0h.1c0,0,0-.2,0-.2,0,0,0,0,0,0s0,0,0,0c0,0,0,0,0,0,0,0,0,0,0,0s0,0,0,0c0,0,0,0,0,0,0,0,0,0,0,0h0s0,.1,0,.1ZM8.4,36h-.1s0,0,0,0h-.1s0-.1,0-.1v-.2c0,0,.2,0,.2,0h.1s0,.1,0,.1h0ZM8.3,35.8s0,0,0,0c0,0,0,0,0,0,0,0,0,0,0,0h0c0,0,0,.1,0,.1,0,0,0,0,0,0,0,0,0,0,0,0s0,0,0,0c0,0,0,0,0,0,0,0,0,0,0,0s0,0,0,0c0,0,0,0,0,0h0s0,0,0,0ZM8.1,36.9h.2s0-.1,0-.1h.3c0,0,.2.2.2.2l-.2.3h-.2s-.3,0-.3,0v-.2c-.1,0,0-.1,0-.1ZM8.7,36.8h-.2c0,0,0,0,0,0h-.2c0-.1-.1-.3-.1-.3l.2-.2h.2c0,0,.2.2.2.2v.2s0,0,0,0ZM8.3,37.3s0,0,0,0,0,0,0,0,0,0,0,0c0,0,0,0,0,0,0,0,0,0,0,0v-.2c.1,0,0-.1,0-.1,0,0,0,0,0,0,0,0,0,0,0,0,0,0,0,0,0,0s0,0,0,0c0,0,0,0,0,0,0,0,0,0,0,0,0,0,0,0,0,0,0,0,0,0,0,0,0,0,0,0,0,0h0c0,0,0,.2,0,.2ZM8.3,35.6h0s0,0,0,0h0c0,0,0,.1,0,.1h-.1c0,0,0,0,0,0h0c0,0,0-.1,0-.1h0ZM8.7,36.5s0,0,0,0c0,0,0,0,0,0s0,0,0,0c0,0,0,0,0,0,0,0,0,0,0,0h-.1c0,0,0,.2,0,.2,0,0,0,0,0,0,0,0,0,0,0,0,0,0,0,0,0,0,0,0,0,0,0,0,0,0,0,0,0,0,0,0,0,0,0,0s0,0,0,0c0,0,0,0,0,0,0,0,0,0,0,0h0s0-.1,0-.1ZM8.3,35.7s0,0,0,0c0,0,0,0,0,0s0,0,0,0h0s0,0,0,0c0,0,0,0,0,0,0,0,0,0,0,0,0,0,0,0,0,0,0,0,0,0,0,0s0,0,0,0h0s0,0,0,0ZM8.6,35.5h0s0,0,0,0h0s0,0,0,0h0c0,0,0,0,0,0h0s0,0,0,0h0ZM8.4,36.1h.2s0,0,0,0h.2s.1.2.1.2v.2h-.5c0,0,0-.2,0-.2h0ZM8.5,35.4h0s0,0,0,0h0s0,0,0,0c0,0,0,0,0,0,0,0,0,0,0,0h0s0,0,0,0c0,0,0,0,0,0h0s0,0,0,0ZM8.8,36h-.1c0,0,0,0,0,0h-.1c0,0,0-.2,0-.2h.1c0-.1,0,0,0,0h.1c0,0,0,.2,0,.2h0ZM8.5,36.3h0s0,0,0,0c0,0,0,0,0,0s0,0,0,0h0c0-.1,0-.2,0-.2,0,0,0,0,0,0,0,0,0,0,0,0s0,0,0,0,0,0,0,0c0,0,0,0,0,0s0,0,0,0c0,0,0,0,0,0h0s0,.1,0,.1ZM8.7,35.9s0,0,0,0c0,0,0,0,0,0s0,0,0,0h0c0,0,0,.1,0,.1,0,0,0,0,0,0,0,0,0,0,0,0,0,0,0,0,0,0,0,0,0,0,0,0s0,0,.1,0h0s0,0,0,0ZM8.5,35.6h0s0,0,0,0h.1s0,0,0,0h0c0,.1,0,.1,0,.1h0s0,0,0,0h0ZM8.7,35.6h0s0,0,0,0h0s0,0,0,0h0c0,0,.1,0,.1,0h0c0,0,0,0,0,0ZM8.6,35.7h.1s0,0,0,0h0s0,0,0,0c0,0,0,0,0,0s0,0,0,0c0,0,0,0,0,0,0,0,0,0,0,0h0s0,0,0,0ZM8.7,35.5s0,0,0,0c0,0,0,0,0,0,0,0,0,0,0,0h0s0,0,0,0c0,0,0,0,0,0,0,0,0,0,0,0,0,0,0,0,0,0,0,0,0,0,0,0,0,0,0,0,0,0h0s0,0,0,0ZM9,35.5h0s0,0,0,0h0s0,0,0,0h0c0,0,0,0,0,0h0s0,0,0,0h0ZM9.4,36.7h-.2s0,0,0,0h-.2s-.2-.2-.2-.2l.2-.2h.2s.2,0,.2,0v.2c0,0,0,0,0,0ZM9.2,36h-.1s0,0,0,0h-.1s0-.1,0-.1v-.2c0,0,.2,0,.2,0h.1s0,.1,0,.1h0ZM8.9,35.4h0s0,0,0,0h0s0,0,0,0,0,0,0,0c0,0,0,0,0,0,0,0,0,0,0,0,0,0,0,0,0,0h0s0,0,0,0ZM8.8,35.6h0s0,0,0,0h0c0,0,0,.1,0,.1h-.1c0,0,0,0,0,0h0c0,0,0-.1,0-.1h0ZM8.9,35.7s0,0,0,0c0,0,0,0,0,0s0,0,0,0h0s0,0,0,0c0,0,0,0,0,0,0,0,0,0,0,0,0,0,0,0,0,0,0,0,0,0,0,0s0,0,0,0h0s0,0,0,0ZM9.1,35.8s0,0,0,0c0,0,0,0,0,0h0c0,0,0,.1,0,.1,0,0,0,0,0,0s0,0,0,0,0,0,0,0,0,0,0,0c0,0,0,0,0,0,0,0,0,0,0,0,0,0,0,0,0,0h0s0,0,0,0ZM9.2,36.5s0,0,0,0,0,0,0,0c0,0,0,0,0,0s0,0,0,0c0,0,0,0,0,0h-.1c0,.1,0,.2,0,.2,0,0,0,0,0,0,0,0,0,0,0,0,0,0,0,0,0,0,0,0,0,0,0,0,0,0,0,0,0,0,0,0,0,0,0,0,0,0,0,0,0,0,0,0,0,0,0,0s0,0,0,0h0s0-.1,0-.1ZM8.9,36h.1c0,0,0,0,0,0h.2c0,0,0,.2,0,.2l-.2.2h-.1c0,0-.2-.2-.2-.2v-.2s0,0,0,0ZM9,36.8h.2c0,.1,0,0,0,0h.3c0,.1.1.4.1.4l-.3.2h-.2c0,0-.2-.2-.2-.2v-.2s0-.1,0-.1ZM9.1,35.6h0s0,0,0,0h0s0,0,0,0h0c0,0,0,0,0,0h0s0,.1,0,.1h0ZM9,36.2s0,0,0,0c0,0,0,0,0,0s0,0,0,0,0,0,0,0c0,0,0,0,0,0h.1c0,0,0-.2,0-.2,0,0,0,0,0,0,0,0,0,0,0,0,0,0,0,0,0,0,0,0,0,0,0,0s0,0,0,0c0,0,0,0,0,0,0,0,0,0,0,0h0s0,.1,0,.1ZM9.1,35.5s0,0,0,0c0,0,0,0,0,0h0s0,0,0,0c0,0,0,0,0,0,0,0,0,0,0,0s0,0,0,0c0,0,0,0,0,0,0,0,0,0,0,0h0s0,0,0,0ZM9.1,37.1s0,0,0,0c0,0,0,0,0,0s0,0,0,0c0,0,0,0,0,0,0,0,0,0,0,0h.2c0-.1,0-.3,0-.3,0,0,0,0,0,0,0,0,0,0,0,0,0,0,0,0,0,0,0,0,0,0,0,0,0,0,0,0,0,0,0,0,0,0,0,0s0,0,0,0c0,0,0,0,0,0,0,0,0,0,0,0h0s0,.2,0,.2ZM9.1,35.6h0s0,0,0,0h.1s0,0,0,0h0c0,.1,0,.1,0,.1h0s0,0,0,0h0ZM9.1,35.7s0,0,0,0c0,0,0,0,0,0h0c0,0,0,0,0,0,0,0,0,0,0,0,0,0,0,0,0,0s0,0,0,0c0,0,0,0,0,0,0,0,0,0,0,0h0s0,0,0,0ZM9.5,36h-.1c0,0,0,0,0,0h-.1c0,0,0-.2,0-.2h.1c0-.1,0,0,0,0h.1c0,0,0,.2,0,.2h0ZM9.5,35.9s0,0,0,0c0,0,0,0,0,0,0,0,0,0,0,0h0c0,0,0,.1,0,.1,0,0,0,0,0,0,0,0,0,0,0,0,0,0,0,0,0,0,0,0,0,0,0,0s0,0,.1,0h0s0,0,0,0ZM9.9,36.8h-.2c0,0,0,0,0,0h-.2c0-.1-.1-.3-.1-.3l.2-.2h.1c0,0,.2.2.2.2v.2s0,0,0,0ZM9.4,36.1h.2s0,0,0,0h.2s.1.2.1.2v.2h-.4c0,0,0-.2,0-.2h0ZM9.9,36.5s0,0,0,0c0,0,0,0,0,0s0,0,0,0c0,0,0,0,0,0,0,0,0,0,0,0h-.1c0,0,0,.2,0,.2,0,0,0,0,0,0,0,0,0,0,0,0,0,0,0,0,0,0s0,0,0,0,0,0,0,0c0,0,0,0,0,0s0,0,0,0h0s0-.1,0-.1ZM9.5,36.3s0,0,0,0c0,0,0,0,0,0,0,0,0,0,0,0,0,0,0,0,0,0,0,0,0,0,0,0h0c0-.1,0-.2,0-.2,0,0,0,0,0,0,0,0,0,0,0,0s0,0,0,0,0,0,0,0c0,0,0,0,0,0s0,0,0,0,0,0,0,0h0s0,.1,0,.1ZM9.7,36.9h.2s0-.1,0-.1h.3c0,0,.2.2.2.2l-.2.3h-.2s-.3,0-.3,0v-.2c-.1,0,0-.1,0-.1ZM9.9,37.3h0s0,0,0,0c0,0,0,0,0,0h0s0,0,0,0,0,0,0,0c0,0,0,0,0,0v-.2c.1,0,0-.1,0-.1,0,0,0,0,0,0,0,0,0,0,0,0,0,0,0,0,0,0,0,0,0,0,0,0,0,0,0,0,0,0,0,0,0,0,0,0,0,0,0,0,0,0,0,0,0,0,0,0,0,0,0,0,0,0h0c0,0,0,.2,0,.2Z"/>
        </g>
      </g>
      <g id="Scree-7" data-name="Scree" class="cls-1">
        <g class="cls-1">
          <path class="cls-2" d="M24.4,34.8h.2c0,.1,0,0,0,0h.3c0,.1.1.4.1.4l-.3.2h-.2c0,0-.2-.2-.2-.2v-.2s0-.1,0-.1ZM24.5,35.1s0,0,0,0c0,0,0,0,0,0s0,0,0,0,0,0,0,0c0,0,0,0,0,0h.2c0-.1,0-.3,0-.3,0,0,0,0,0,0s0,0,0,0,0,0,0,0c0,0,0,0,0,0,0,0,0,0,0,0,0,0,0,0,0,0s0,0,0,0,0,0,0,0,0,0,0,0h0s0,.2,0,.2ZM25.2,34.7h-.2s0,0,0,0h-.2s-.2-.2-.2-.2l.2-.2h.2s.2,0,.2,0v.2c0,0,0,0,0,0ZM25,34.4s0,0,0,0c0,0,0,0,0,0s0,0,0,0c0,0,0,0,0,0,0,0,0,0,0,0h-.1c0,.1,0,.2,0,.2,0,0,0,0,0,0s0,0,0,0c0,0,0,0,0,0,0,0,0,0,0,0s0,0,0,0,0,0,0,0c0,0,0,0,0,0,0,0,0,0,0,0,0,0,0,0,0,0h0s0-.1,0-.1ZM24.9,34h.1c0,0,0,0,0,0h.2c0,0,0,.2,0,.2l-.2.2h-.1c0,0-.2-.2-.2-.2v-.2s0,0,0,0ZM25,34.2s0,0,0,0,0,0,0,0,0,0,0,0c0,0,0,0,0,0s0,0,0,0h.1c0,0,0-.2,0-.2,0,0,0,0,0,0,0,0,0,0,0,0,0,0,0,0,0,0,0,0,0,0,0,0s0,0,0,0c0,0,0,0,0,0,0,0,0,0,0,0h0s0,.1,0,.1ZM25.4,33.9h-.1s0,0,0,0h-.1s0-.1,0-.1v-.2c0,0,.2,0,.2,0h.1s0,.1,0,.1h0ZM25.3,33.8s0,0,0,0c0,0,0,0,0,0,0,0,0,0,0,0h0c0,0,0,.1,0,.1,0,0,0,0,0,0,0,0,0,0,0,0s0,0,0,0c0,0,0,0,0,0,0,0,0,0,0,0,0,0,0,0,0,0,0,0,0,0,0,0h0s0,0,0,0ZM25.1,34.9h.2s0-.1,0-.1h.3c0,0,.2.2.2.2l-.2.3h-.2s-.3,0-.3,0v-.2c-.1,0,0-.1,0-.1ZM25.7,34.8h-.2c0,0,0,0,0,0h-.2c0-.1-.1-.3-.1-.3l.2-.2h.2c0,0,.2.2.2.2v.2s0,0,0,0ZM25.3,35.2s0,0,0,0,0,0,0,0,0,0,0,0c0,0,0,0,0,0s0,0,0,0v-.2c.1,0,0-.1,0-.1,0,0,0,0,0,0,0,0,0,0,0,0,0,0,0,0,0,0,0,0,0,0,0,0,0,0,0,0,0,0,0,0,0,0,0,0,0,0,0,0,0,0,0,0,0,0,0,0,0,0,0,0,0,0h0c0,0,0,.2,0,.2ZM25.3,33.5h0s0,0,0,0h0c0,0,0,.1,0,.1h-.1c0,0,0,0,0,0h0c0,0,0-.1,0-.1h0ZM25.7,34.5s0,0,0,0c0,0,0,0,0,0s0,0,0,0c0,0,0,0,0,0,0,0,0,0,0,0h-.1c0,0,0,.2,0,.2,0,0,0,0,0,0,0,0,0,0,0,0s0,0,0,0c0,0,0,0,0,0,0,0,0,0,0,0,0,0,0,0,0,0s0,0,0,0,0,0,0,0c0,0,0,0,0,0h0s0-.1,0-.1ZM25.3,33.6s0,0,0,0c0,0,0,0,0,0s0,0,0,0h0s0,0,0,0c0,0,0,0,0,0,0,0,0,0,0,0,0,0,0,0,0,0,0,0,0,0,0,0s0,0,0,0h0s0,0,0,0ZM25.6,33.5h0s0,0,0,0h0s0,0,0,0h0c0,0,0,0,0,0h0s0,0,0,0h0ZM25.4,34.1h.2s0,0,0,0h.2s.1.2.1.2v.2h-.5c0,0,0-.2,0-.2h0ZM25.5,33.4h0s0,0,0,0h0s0,0,0,0c0,0,0,0,0,0,0,0,0,0,0,0h0s0,0,0,0c0,0,0,0,0,0h0s0,0,0,0ZM25.8,34h-.1c0,0,0,0,0,0h-.1c0,0,0-.2,0-.2h.1c0-.1,0,0,0,0h.1c0,0,0,.2,0,.2h0ZM25.5,34.3h0s0,0,0,0c0,0,0,0,0,0,0,0,0,0,0,0h0c0-.1,0-.2,0-.2,0,0,0,0,0,0,0,0,0,0,0,0s0,0,0,0c0,0,0,0,0,0,0,0,0,0,0,0,0,0,0,0,0,0,0,0,0,0,0,0h0s0,.1,0,.1ZM25.7,33.8s0,0,0,0c0,0,0,0,0,0s0,0,0,0h0c0,0,0,.1,0,.1,0,0,0,0,0,0,0,0,0,0,0,0,0,0,0,0,0,0,0,0,0,0,0,0,0,0,0,0,.1,0h0s0,0,0,0ZM25.5,33.6h0s0,0,0,0h.1s0,0,0,0h0c0,.1,0,.1,0,.1h0s0,0,0,0h0ZM25.7,33.5h0s0,0,0,0h0s0-.1,0-.1h0c0,0,.1,0,.1,0h0c0,0,0,0,0,0ZM25.6,33.7h.1s0,0,0,0h0s0,0,0,0c0,0,0,0,0,0s0,0,0,0,0,0,0,0c0,0,0,0,0,0h0s0,0,0,0ZM25.7,33.4s0,0,0,0c0,0,0,0,0,0s0,0,0,0h0s0,0,0,0c0,0,0,0,0,0,0,0,0,0,0,0,0,0,0,0,0,0,0,0,0,0,0,0,0,0,0,0,0,0h0s0,0,0,0ZM26,33.5h0s0,0,0,0h0s0,0,0,0h0c0,0,0,0,0,0h0s0,0,0,0h0ZM26.4,34.7h-.2s0,0,0,0h-.2s-.2-.2-.2-.2l.2-.2h.2s.2,0,.2,0v.2c0,0,0,0,0,0ZM26.2,33.9h-.1s0,0,0,0h-.1s0-.1,0-.1v-.2c0,0,.2,0,.2,0h.1s0,.1,0,.1h0ZM25.9,33.4h0s0,0,0,0h0s0,0,0,0c0,0,0,0,0,0,0,0,0,0,0,0,0,0,0,0,0,0,0,0,0,0,0,0h0s0,0,0,0ZM25.8,33.5h0s0,0,0,0h0c0,0,0,.1,0,.1h-.1c0,0,0,0,0,0h0c0,0,0-.1,0-.1h0ZM25.9,33.6s0,0,0,0c0,0,0,0,0,0s0,0,0,0h0s0,0,0,0c0,0,0,0,0,0,0,0,0,0,0,0,0,0,0,0,0,0,0,0,0,0,0,0s0,0,0,0h0s0,0,0,0ZM26.1,33.8s0,0,0,0c0,0,0,0,0,0h0c0,0,0,.1,0,.1,0,0,0,0,0,0,0,0,0,0,0,0s0,0,0,0c0,0,0,0,0,0,0,0,0,0,0,0,0,0,0,0,0,0,0,0,0,0,0,0h0s0,0,0,0ZM26.2,34.4s0,0,0,0c0,0,0,0,0,0s0,0,0,0c0,0,0,0,0,0,0,0,0,0,0,0h-.1c0,.1,0,.2,0,.2,0,0,0,0,0,0,0,0,0,0,0,0,0,0,0,0,0,0,0,0,0,0,0,0,0,0,0,0,0,0s0,0,0,0c0,0,0,0,0,0,0,0,0,0,0,0,0,0,0,0,0,0h0s0-.1,0-.1ZM25.9,34h.1c0,0,0,0,0,0h.2c0,0,0,.2,0,.2l-.2.2h-.1c0,0-.2-.2-.2-.2v-.2s0,0,0,0ZM26,34.8h.2c0,.1,0,0,0,0h.3c0,.1.1.4.1.4l-.3.2h-.2c0,0-.2-.2-.2-.2v-.2s0-.1,0-.1ZM26.1,33.5h0s0,0,0,0h0s0,0,0,0h0c0,0,0,0,0,0h0s0,.1,0,.1h0ZM26,34.2s0,0,0,0,0,0,0,0,0,0,0,0c0,0,0,0,0,0,0,0,0,0,0,0h.1c0,0,0-.2,0-.2,0,0,0,0,0,0s0,0,0,0c0,0,0,0,0,0,0,0,0,0,0,0s0,0,0,0,0,0,0,0,0,0,0,0h0s0,.1,0,.1ZM26.1,33.4s0,0,0,0c0,0,0,0,0,0h0s0,0,0,0c0,0,0,0,0,0,0,0,0,0,0,0s0,0,0,0c0,0,0,0,0,0s0,0,0,0h0s0,0,0,0ZM26.1,35.1s0,0,0,0c0,0,0,0,0,0s0,0,0,0c0,0,0,0,0,0s0,0,0,0h.2c0-.1,0-.3,0-.3,0,0,0,0,0,0,0,0,0,0,0,0,0,0,0,0,0,0,0,0,0,0,0,0,0,0,0,0,0,0,0,0,0,0,0,0s0,0,0,0c0,0,0,0,0,0,0,0,0,0,0,0h0s0,.2,0,.2ZM26.1,33.6h0s0,0,0,0h.1s0,0,0,0h0c0,.1,0,.1,0,.1h0s0,0,0,0h0ZM26.1,33.7s0,0,0,0c0,0,0,0,0,0h0c0,0,0,0,0,0,0,0,0,0,0,0s0,0,0,0,0,0,0,0c0,0,0,0,0,0s0,0,0,0h0s0,0,0,0ZM26.5,34h-.1c0,0,0,0,0,0h-.1c0,0,0-.2,0-.2h.1c0-.1,0,0,0,0h.1c0,0,0,.2,0,.2h0ZM26.5,33.8s0,0,0,0c0,0,0,0,0,0,0,0,0,0,0,0h0c0,0,0,.1,0,.1,0,0,0,0,0,0,0,0,0,0,0,0,0,0,0,0,0,0,0,0,0,0,0,0s0,0,.1,0h0s0,0,0,0ZM26.9,34.8h-.2c0,0,0,0,0,0h-.2c0-.1-.1-.3-.1-.3l.2-.2h.1c0,0,.2.2.2.2v.2s0,0,0,0ZM26.4,34.1h.2s0,0,0,0h.2s.1.2.1.2v.2h-.4c0,0,0-.2,0-.2h0ZM26.9,34.5s0,0,0,0c0,0,0,0,0,0s0,0,0,0c0,0,0,0,0,0,0,0,0,0,0,0h-.1c0,0,0,.2,0,.2,0,0,0,0,0,0,0,0,0,0,0,0,0,0,0,0,0,0,0,0,0,0,0,0s0,0,0,0c0,0,0,0,0,0,0,0,0,0,0,0h0s0-.1,0-.1ZM26.5,34.3s0,0,0,0c0,0,0,0,0,0,0,0,0,0,0,0,0,0,0,0,0,0,0,0,0,0,0,0h0c0-.1,0-.2,0-.2,0,0,0,0,0,0,0,0,0,0,0,0s0,0,0,0,0,0,0,0c0,0,0,0,0,0,0,0,0,0,0,0,0,0,0,0,0,0h0s0,.1,0,.1ZM26.7,34.9h.2s0-.1,0-.1h.3c0,0,.2.2.2.2l-.2.3h-.2s-.3,0-.3,0v-.2c-.1,0,0-.1,0-.1ZM26.9,35.2h0s0,0,0,0c0,0,0,0,0,0h0s0,0,0,0,0,0,0,0,0,0,0,0v-.2c.1,0,0-.1,0-.1,0,0,0,0,0,0,0,0,0,0,0,0,0,0,0,0,0,0,0,0,0,0,0,0,0,0,0,0,0,0,0,0,0,0,0,0,0,0,0,0,0,0s0,0,0,0,0,0,0,0h0c0,0,0,.2,0,.2Z"/>
        </g>
      </g>
      <g id="Scree-8" data-name="Scree" class="cls-1">
        <g class="cls-1">
          <path class="cls-2" d="M39.4,33.8h.2c0,.1,0,0,0,0h.3c0,.1.1.4.1.4l-.3.2h-.2c0,0-.2-.2-.2-.2v-.2s0-.1,0-.1ZM39.5,34.1s0,0,0,0c0,0,0,0,0,0s0,0,0,0,0,0,0,0c0,0,0,0,0,0h.2c0-.1,0-.3,0-.3,0,0,0,0,0,0,0,0,0,0,0,0s0,0,0,0c0,0,0,0,0,0,0,0,0,0,0,0,0,0,0,0,0,0s0,0,0,0c0,0,0,0,0,0s0,0,0,0h0s0,.2,0,.2ZM40.2,33.7h-.2s0,0,0,0h-.2s-.2-.2-.2-.2l.2-.2h.2s.2,0,.2,0v.2c0,0,0,0,0,0ZM40,33.4s0,0,0,0c0,0,0,0,0,0s0,0,0,0c0,0,0,0,0,0,0,0,0,0,0,0h-.1c0,.1,0,.2,0,.2,0,0,0,0,0,0,0,0,0,0,0,0,0,0,0,0,0,0,0,0,0,0,0,0s0,0,0,0,0,0,0,0c0,0,0,0,0,0,0,0,0,0,0,0,0,0,0,0,0,0h0s0-.1,0-.1ZM39.9,33h.1c0,0,0,0,0,0h.2c0,0,0,.2,0,.2l-.2.2h-.1c0,0-.2-.2-.2-.2v-.2s0,0,0,0ZM40,33.2s0,0,0,0c0,0,0,0,0,0s0,0,0,0c0,0,0,0,0,0,0,0,0,0,0,0h.1c0,0,0-.2,0-.2,0,0,0,0,0,0,0,0,0,0,0,0,0,0,0,0,0,0,0,0,0,0,0,0s0,0,0,0,0,0,0,0c0,0,0,0,0,0h0s0,.1,0,.1ZM40.4,32.9h-.1s0,0,0,0h-.1s0-.1,0-.1v-.2c0,0,.2,0,.2,0h.1s0,.1,0,.1h0ZM40.3,32.8s0,0,0,0c0,0,0,0,0,0,0,0,0,0,0,0h0c0,0,0,.1,0,.1,0,0,0,0,0,0,0,0,0,0,0,0s0,0,0,0c0,0,0,0,0,0,0,0,0,0,0,0,0,0,0,0,0,0,0,0,0,0,0,0h0s0,0,0,0ZM40.1,33.9h.2s0-.1,0-.1h.3c0,0,.2.2.2.2l-.2.3h-.2s-.3,0-.3,0v-.2c-.1,0,0-.1,0-.1ZM40.7,33.8h-.2c0,0,0,0,0,0h-.2c0-.1-.1-.3-.1-.3l.2-.2h.2c0,0,.2.2.2.2v.2s0,0,0,0ZM40.3,34.2s0,0,0,0c0,0,0,0,0,0s0,0,0,0c0,0,0,0,0,0,0,0,0,0,0,0v-.2c.1,0,0-.1,0-.1,0,0,0,0,0,0,0,0,0,0,0,0,0,0,0,0,0,0,0,0,0,0,0,0,0,0,0,0,0,0,0,0,0,0,0,0,0,0,0,0,0,0,0,0,0,0,0,0,0,0,0,0,0,0h0c0,0,0,.2,0,.2ZM40.3,32.5h0s0,0,0,0h0c0,0,0,.1,0,.1h0c0,0,0,0,0,0h0c0,0,0-.1,0-.1h0ZM40.7,33.5s0,0,0,0c0,0,0,0,0,0s0,0,0,0c0,0,0,0,0,0,0,0,0,0,0,0h-.1c0,0,0,.2,0,.2,0,0,0,0,0,0,0,0,0,0,0,0s0,0,0,0c0,0,0,0,0,0,0,0,0,0,0,0,0,0,0,0,0,0s0,0,0,0c0,0,0,0,0,0,0,0,0,0,0,0h0s0-.1,0-.1ZM40.3,32.6s0,0,0,0c0,0,0,0,0,0s0,0,0,0h0s0,0,0,0c0,0,0,0,0,0,0,0,0,0,0,0,0,0,0,0,0,0,0,0,0,0,0,0s0,0,0,0h0s0,0,0,0ZM40.6,32.5h0s0,0,0,0h0s0,0,0,0h0c0,0,0,0,0,0h0s0,0,0,0h0ZM40.4,33.1h.2s0,0,0,0h.2s.1.2.1.2v.2h-.5c0,0,0-.2,0-.2h0ZM40.5,32.4h0s0,0,0,0h0s0,0,0,0c0,0,0,0,0,0,0,0,0,0,0,0h0s0,0,0,0c0,0,0,0,0,0h0s0,0,0,0ZM40.8,33h-.1c0,0,0,0,0,0h-.1c0,0,0-.2,0-.2h.1c0-.1,0,0,0,0h.1c0,0,0,.2,0,.2h0ZM40.5,33.3h0s0,0,0,0c0,0,0,0,0,0,0,0,0,0,0,0h0c0-.1,0-.2,0-.2,0,0,0,0,0,0,0,0,0,0,0,0s0,0,0,0c0,0,0,0,0,0,0,0,0,0,0,0,0,0,0,0,0,0,0,0,0,0,0,0h0s0,.1,0,.1ZM40.7,32.8s0,0,0,0c0,0,0,0,0,0s0,0,0,0h0c0,0,0,.1,0,.1,0,0,0,0,0,0,0,0,0,0,0,0,0,0,0,0,0,0,0,0,0,0,0,0,0,0,0,0,.1,0h0s0,0,0,0ZM40.5,32.6h0s0,0,0,0h.1s0,0,0,0h0c0,.1,0,.1,0,.1h0s0,0,0,0h0ZM40.7,32.5h0s0,0,0,0h0s0-.1,0-.1h0c0,0,.1,0,.1,0h0c0,0,0,0,0,0ZM40.6,32.7h.1s0,0,0,0h0s0,0,0,0c0,0,0,0,0,0s0,0,0,0c0,0,0,0,0,0,0,0,0,0,0,0h0s0,0,0,0ZM40.7,32.4s0,0,0,0,0,0,0,0,0,0,0,0h0s0,0,0,0c0,0,0,0,0,0,0,0,0,0,0,0,0,0,0,0,0,0,0,0,0,0,0,0,0,0,0,0,0,0h0s0,0,0,0ZM41,32.5h0s0,0,0,0h0s0,0,0,0h0c0,0,0,0,0,0h0s0,0,0,0h0ZM41.4,33.7h-.2s0,0,0,0h-.2s-.2-.2-.2-.2l.2-.2h.2s.2,0,.2,0v.2c0,0,0,0,0,0ZM41.2,32.9h-.1s0,0,0,0h-.1s0-.1,0-.1v-.2c0,0,.2,0,.2,0h.1s0,.1,0,.1h0ZM40.9,32.4h0s0,0,0,0h0s0,0,0,0c0,0,0,0,0,0,0,0,0,0,0,0,0,0,0,0,0,0,0,0,0,0,0,0h0s0,0,0,0ZM40.8,32.5h0s0,0,0,0h0c0,0,0,.1,0,.1h-.1c0,0,0,0,0,0h0c0,0,0-.1,0-.1h0ZM40.9,32.6s0,0,0,0c0,0,0,0,0,0s0,0,0,0h0s0,0,0,0c0,0,0,0,0,0,0,0,0,0,0,0,0,0,0,0,0,0,0,0,0,0,0,0s0,0,0,0h0s0,0,0,0ZM41.1,32.8s0,0,0,0c0,0,0,0,0,0h0c0,0,0,.1,0,.1,0,0,0,0,0,0s0,0,0,0,0,0,0,0c0,0,0,0,0,0,0,0,0,0,0,0,0,0,0,0,0,0,0,0,0,0,0,0h0s0,0,0,0ZM41.2,33.4s0,0,0,0c0,0,0,0,0,0s0,0,0,0c0,0,0,0,0,0,0,0,0,0,0,0h-.1c0,.1,0,.2,0,.2,0,0,0,0,0,0,0,0,0,0,0,0,0,0,0,0,0,0,0,0,0,0,0,0,0,0,0,0,0,0,0,0,0,0,0,0,0,0,0,0,0,0,0,0,0,0,0,0,0,0,0,0,0,0h0s0-.1,0-.1ZM40.9,33h.1c0,0,0,0,0,0h.2c0,0,0,.2,0,.2l-.2.2h-.1c0,0-.2-.2-.2-.2v-.2s0,0,0,0ZM41,33.8h.2c0,.1,0,0,0,0h.3c0,.1.1.4.1.4l-.3.2h-.2c0,0-.2-.2-.2-.2v-.2s0-.1,0-.1ZM41.1,32.5h0s0,0,0,0h0s0,0,0,0h0c0,0,0,0,0,0h0s0,.1,0,.1h0ZM41,33.2s0,0,0,0,0,0,0,0,0,0,0,0c0,0,0,0,0,0,0,0,0,0,0,0h.1c0,0,0-.2,0-.2,0,0,0,0,0,0,0,0,0,0,0,0,0,0,0,0,0,0,0,0,0,0,0,0s0,0,0,0,0,0,0,0,0,0,0,0h0s0,.1,0,.1ZM41.1,32.4s0,0,0,0c0,0,0,0,0,0h0s0,0,0,0c0,0,0,0,0,0,0,0,0,0,0,0s0,0,0,0,0,0,0,0c0,0,0,0,0,0h0s0,0,0,0ZM41.1,34.1s0,0,0,0c0,0,0,0,0,0s0,0,0,0,0,0,0,0,0,0,0,0h.2c0-.1,0-.3,0-.3,0,0,0,0,0,0,0,0,0,0,0,0,0,0,0,0,0,0,0,0,0,0,0,0,0,0,0,0,0,0,0,0,0,0,0,0s0,0,0,0c0,0,0,0,0,0,0,0,0,0,0,0h0s0,.2,0,.2ZM41.1,32.6h0s0,0,0,0h.1s0,0,0,0h0c0,.1,0,.1,0,.1h0s0,0,0,0h0ZM41.1,32.7s0,0,0,0c0,0,0,0,0,0h0c0,0,0,0,0,0,0,0,0,0,0,0,0,0,0,0,0,0s0,0,0,0c0,0,0,0,0,0,0,0,0,0,0,0h0s0,0,0,0ZM41.5,33h-.1c0,0,0,0,0,0h-.1c0,0,0-.2,0-.2h.1c0-.1,0,0,0,0h.1c0,0,0,.2,0,.2h0ZM41.5,32.8s0,0,0,0c0,0,0,0,0,0,0,0,0,0,0,0h0c0,0,0,.1,0,.1,0,0,0,0,0,0,0,0,0,0,0,0,0,0,0,0,0,0,0,0,0,0,0,0s0,0,.1,0h0s0,0,0,0ZM41.9,33.8h-.2c0,0,0,0,0,0h-.2c0-.1-.1-.3-.1-.3l.2-.2h.1c0,0,.2.2.2.2v.2s0,0,0,0ZM41.4,33.1h.2s0,0,0,0h.2s.1.2.1.2v.2h-.4c0,0,0-.2,0-.2h0ZM41.9,33.5s0,0,0,0c0,0,0,0,0,0s0,0,0,0c0,0,0,0,0,0,0,0,0,0,0,0h-.1c0,0,0,.2,0,.2,0,0,0,0,0,0,0,0,0,0,0,0,0,0,0,0,0,0,0,0,0,0,0,0s0,0,0,0c0,0,0,0,0,0,0,0,0,0,0,0h0s0-.1,0-.1ZM41.5,33.3s0,0,0,0c0,0,0,0,0,0s0,0,0,0c0,0,0,0,0,0,0,0,0,0,0,0h0c0-.1,0-.2,0-.2,0,0,0,0,0,0s0,0,0,0,0,0,0,0,0,0,0,0c0,0,0,0,0,0,0,0,0,0,0,0,0,0,0,0,0,0h0s0,.1,0,.1ZM41.7,33.9h.2s0-.1,0-.1h.3c0,0,.2.2.2.2l-.2.3h-.2s-.3,0-.3,0v-.2c-.1,0,0-.1,0-.1ZM41.9,34.2h0s0,0,0,0c0,0,0,0,0,0h0s0,0,0,0c0,0,0,0,0,0s0,0,0,0v-.2c.1,0,0-.1,0-.1,0,0,0,0,0,0s0,0,0,0c0,0,0,0,0,0s0,0,0,0c0,0,0,0,0,0,0,0,0,0,0,0,0,0,0,0,0,0,0,0,0,0,0,0,0,0,0,0,0,0h0c0,0,0,.2,0,.2Z"/>
        </g>
      </g>
      <g id="Scree-9" data-name="Scree" class="cls-1">
        <g class="cls-1">
          <path class="cls-2" d="M36.4,45.8h.2c0,.1,0,0,0,0h.3c0,.1.1.4.1.4l-.3.2h-.2c0,0-.2-.2-.2-.2v-.2s0-.1,0-.1ZM36.5,46.1s0,0,0,0c0,0,0,0,0,0s0,0,0,0,0,0,0,0c0,0,0,0,0,0h.2c0-.1,0-.3,0-.3,0,0,0,0,0,0,0,0,0,0,0,0s0,0,0,0c0,0,0,0,0,0,0,0,0,0,0,0,0,0,0,0,0,0s0,0,0,0c0,0,0,0,0,0s0,0,0,0h0s0,.2,0,.2ZM37.2,45.7h-.2s0,0,0,0h-.2s-.2-.2-.2-.2l.2-.2h.2s.2,0,.2,0v.2c0,0,0,0,0,0ZM37,45.4s0,0,0,0c0,0,0,0,0,0s0,0,0,0c0,0,0,0,0,0,0,0,0,0,0,0h-.1c0,.1,0,.2,0,.2,0,0,0,0,0,0,0,0,0,0,0,0,0,0,0,0,0,0,0,0,0,0,0,0s0,0,0,0,0,0,0,0c0,0,0,0,0,0,0,0,0,0,0,0,0,0,0,0,0,0h0s0-.1,0-.1ZM36.9,45h.1c0,0,0,0,0,0h.2c0,0,0,.2,0,.2l-.2.2h-.1c0,0-.2-.2-.2-.2v-.2s0,0,0,0ZM37,45.2s0,0,0,0c0,0,0,0,0,0s0,0,0,0c0,0,0,0,0,0,0,0,0,0,0,0h.1c0,0,0-.2,0-.2,0,0,0,0,0,0,0,0,0,0,0,0,0,0,0,0,0,0,0,0,0,0,0,0s0,0,0,0,0,0,0,0c0,0,0,0,0,0h0s0,.1,0,.1ZM37.4,44.9h-.1s0,0,0,0h-.1s0-.1,0-.1v-.2c0,0,.2,0,.2,0h.1s0,.1,0,.1h0ZM37.3,44.8s0,0,0,0c0,0,0,0,0,0,0,0,0,0,0,0h0c0,0,0,.1,0,.1,0,0,0,0,0,0,0,0,0,0,0,0s0,0,0,0c0,0,0,0,0,0,0,0,0,0,0,0,0,0,0,0,0,0,0,0,0,0,0,0h0s0,0,0,0ZM37.1,45.9h.2s0-.1,0-.1h.3c0,0,.2.2.2.2l-.2.3h-.2s-.3,0-.3,0v-.2c-.1,0,0-.1,0-.1ZM37.7,45.8h-.2c0,0,0,0,0,0h-.2c0-.1-.1-.3-.1-.3l.2-.2h.2c0,0,.2.2.2.2v.2s0,0,0,0ZM37.3,46.2s0,0,0,0c0,0,0,0,0,0s0,0,0,0c0,0,0,0,0,0,0,0,0,0,0,0v-.2c.1,0,0-.1,0-.1,0,0,0,0,0,0,0,0,0,0,0,0,0,0,0,0,0,0,0,0,0,0,0,0,0,0,0,0,0,0,0,0,0,0,0,0,0,0,0,0,0,0,0,0,0,0,0,0,0,0,0,0,0,0h0c0,0,0,.2,0,.2ZM37.3,44.5h0s0,0,0,0h0c0,0,0,.1,0,.1h0c0,0,0,0,0,0h0c0,0,0-.1,0-.1h0ZM37.7,45.5s0,0,0,0c0,0,0,0,0,0s0,0,0,0c0,0,0,0,0,0,0,0,0,0,0,0h-.1c0,0,0,.2,0,.2,0,0,0,0,0,0,0,0,0,0,0,0s0,0,0,0c0,0,0,0,0,0,0,0,0,0,0,0,0,0,0,0,0,0s0,0,0,0c0,0,0,0,0,0,0,0,0,0,0,0h0s0-.1,0-.1ZM37.3,44.6s0,0,0,0c0,0,0,0,0,0s0,0,0,0h0s0,0,0,0c0,0,0,0,0,0,0,0,0,0,0,0,0,0,0,0,0,0,0,0,0,0,0,0s0,0,0,0h0s0,0,0,0ZM37.6,44.5h0s0,0,0,0h0s0,0,0,0h0c0,0,0,0,0,0h0s0,0,0,0h0ZM37.4,45.1h.2s0,0,0,0h.2s.1.2.1.2v.2h-.5c0,0,0-.2,0-.2h0ZM37.5,44.4h0s0,0,0,0h0s0,0,0,0c0,0,0,0,0,0,0,0,0,0,0,0h0s0,0,0,0c0,0,0,0,0,0h0s0,0,0,0ZM37.8,45h-.1c0,0,0,0,0,0h-.1c0,0,0-.2,0-.2h.1c0-.1,0,0,0,0h.1c0,0,0,.2,0,.2h0ZM37.5,45.3h0s0,0,0,0c0,0,0,0,0,0,0,0,0,0,0,0h0c0-.1,0-.2,0-.2,0,0,0,0,0,0,0,0,0,0,0,0s0,0,0,0c0,0,0,0,0,0,0,0,0,0,0,0,0,0,0,0,0,0,0,0,0,0,0,0h0s0,.1,0,.1ZM37.7,44.8s0,0,0,0c0,0,0,0,0,0s0,0,0,0h0c0,0,0,.1,0,.1,0,0,0,0,0,0,0,0,0,0,0,0,0,0,0,0,0,0,0,0,0,0,0,0,0,0,0,0,.1,0h0s0,0,0,0ZM37.5,44.6h0s0,0,0,0h.1s0,0,0,0h0c0,.1,0,.1,0,.1h0s0,0,0,0h0ZM37.7,44.5h0s0,0,0,0h0s0-.1,0-.1h0c0,0,.1,0,.1,0h0c0,0,0,0,0,0ZM37.6,44.7h.1s0,0,0,0h0s0,0,0,0c0,0,0,0,0,0s0,0,0,0c0,0,0,0,0,0,0,0,0,0,0,0h0s0,0,0,0ZM37.7,44.4s0,0,0,0,0,0,0,0,0,0,0,0h0s0,0,0,0c0,0,0,0,0,0,0,0,0,0,0,0,0,0,0,0,0,0,0,0,0,0,0,0,0,0,0,0,0,0h0s0,0,0,0ZM38,44.5h0s0,0,0,0h0s0,0,0,0h0c0,0,0,0,0,0h0s0,0,0,0h0ZM38.4,45.7h-.2s0,0,0,0h-.2s-.2-.2-.2-.2l.2-.2h.2s.2,0,.2,0v.2c0,0,0,0,0,0ZM38.2,44.9h-.1s0,0,0,0h-.1s0-.1,0-.1v-.2c0,0,.2,0,.2,0h.1s0,.1,0,.1h0ZM37.9,44.4h0s0,0,0,0h0s0,0,0,0c0,0,0,0,0,0,0,0,0,0,0,0,0,0,0,0,0,0,0,0,0,0,0,0h0s0,0,0,0ZM37.8,44.5h0s0,0,0,0h0c0,0,0,.1,0,.1h-.1c0,0,0,0,0,0h0c0,0,0-.1,0-.1h0ZM37.9,44.6s0,0,0,0c0,0,0,0,0,0s0,0,0,0h0s0,0,0,0c0,0,0,0,0,0,0,0,0,0,0,0,0,0,0,0,0,0,0,0,0,0,0,0s0,0,0,0h0s0,0,0,0ZM38.1,44.8s0,0,0,0c0,0,0,0,0,0h0c0,0,0,.1,0,.1,0,0,0,0,0,0s0,0,0,0,0,0,0,0c0,0,0,0,0,0,0,0,0,0,0,0,0,0,0,0,0,0,0,0,0,0,0,0h0s0,0,0,0ZM38.2,45.4s0,0,0,0c0,0,0,0,0,0s0,0,0,0c0,0,0,0,0,0,0,0,0,0,0,0h-.1c0,.1,0,.2,0,.2,0,0,0,0,0,0,0,0,0,0,0,0,0,0,0,0,0,0,0,0,0,0,0,0,0,0,0,0,0,0,0,0,0,0,0,0,0,0,0,0,0,0,0,0,0,0,0,0,0,0,0,0,0,0h0s0-.1,0-.1ZM37.9,45h.1c0,0,0,0,0,0h.2c0,0,0,.2,0,.2l-.2.2h-.1c0,0-.2-.2-.2-.2v-.2s0,0,0,0ZM38,45.8h.2c0,.1,0,0,0,0h.3c0,.1.1.4.1.4l-.3.2h-.2c0,0-.2-.2-.2-.2v-.2s0-.1,0-.1ZM38.1,44.5h0s0,0,0,0h0s0,0,0,0h0c0,0,0,0,0,0h0s0,.1,0,.1h0ZM38,45.2s0,0,0,0,0,0,0,0,0,0,0,0c0,0,0,0,0,0,0,0,0,0,0,0h.1c0,0,0-.2,0-.2,0,0,0,0,0,0,0,0,0,0,0,0,0,0,0,0,0,0,0,0,0,0,0,0s0,0,0,0,0,0,0,0,0,0,0,0h0s0,.1,0,.1ZM38.1,44.4s0,0,0,0c0,0,0,0,0,0h0s0,0,0,0c0,0,0,0,0,0,0,0,0,0,0,0s0,0,0,0,0,0,0,0c0,0,0,0,0,0h0s0,0,0,0ZM38.1,46.1s0,0,0,0c0,0,0,0,0,0s0,0,0,0,0,0,0,0,0,0,0,0h.2c0-.1,0-.3,0-.3,0,0,0,0,0,0,0,0,0,0,0,0,0,0,0,0,0,0,0,0,0,0,0,0,0,0,0,0,0,0,0,0,0,0,0,0s0,0,0,0c0,0,0,0,0,0,0,0,0,0,0,0h0s0,.2,0,.2ZM38.1,44.6h0s0,0,0,0h.1s0,0,0,0h0c0,.1,0,.1,0,.1h0s0,0,0,0h0ZM38.1,44.7s0,0,0,0c0,0,0,0,0,0h0c0,0,0,0,0,0,0,0,0,0,0,0,0,0,0,0,0,0s0,0,0,0c0,0,0,0,0,0,0,0,0,0,0,0h0s0,0,0,0ZM38.5,45h-.1c0,0,0,0,0,0h-.1c0,0,0-.2,0-.2h.1c0-.1,0,0,0,0h.1c0,0,0,.2,0,.2h0ZM38.5,44.8s0,0,0,0c0,0,0,0,0,0,0,0,0,0,0,0h0c0,0,0,.1,0,.1,0,0,0,0,0,0,0,0,0,0,0,0,0,0,0,0,0,0,0,0,0,0,0,0s0,0,.1,0h0s0,0,0,0ZM38.9,45.8h-.2c0,0,0,0,0,0h-.2c0-.1-.1-.3-.1-.3l.2-.2h.1c0,0,.2.2.2.2v.2s0,0,0,0ZM38.4,45.1h.2s0,0,0,0h.2s.1.2.1.2v.2h-.4c0,0,0-.2,0-.2h0ZM38.9,45.5s0,0,0,0c0,0,0,0,0,0s0,0,0,0c0,0,0,0,0,0,0,0,0,0,0,0h-.1c0,0,0,.2,0,.2,0,0,0,0,0,0,0,0,0,0,0,0,0,0,0,0,0,0,0,0,0,0,0,0s0,0,0,0c0,0,0,0,0,0,0,0,0,0,0,0h0s0-.1,0-.1ZM38.5,45.3s0,0,0,0c0,0,0,0,0,0s0,0,0,0c0,0,0,0,0,0,0,0,0,0,0,0h0c0-.1,0-.2,0-.2,0,0,0,0,0,0s0,0,0,0,0,0,0,0,0,0,0,0c0,0,0,0,0,0,0,0,0,0,0,0,0,0,0,0,0,0h0s0,.1,0,.1ZM38.7,45.9h.2s0-.1,0-.1h.3c0,0,.2.2.2.2l-.2.3h-.2s-.3,0-.3,0v-.2c-.1,0,0-.1,0-.1ZM38.9,46.2h0s0,0,0,0c0,0,0,0,0,0h0s0,0,0,0c0,0,0,0,0,0s0,0,0,0v-.2c.1,0,0-.1,0-.1,0,0,0,0,0,0s0,0,0,0c0,0,0,0,0,0s0,0,0,0c0,0,0,0,0,0,0,0,0,0,0,0,0,0,0,0,0,0,0,0,0,0,0,0,0,0,0,0,0,0h0c0,0,0,.2,0,.2Z"/>
        </g>
      </g>
      <g id="Scree-10" data-name="Scree" class="cls-1">
        <g class="cls-1">
          <path class="cls-2" d="M2.4,45.7h.2c0,.1,0,0,0,0h.3c0,.1.1.4.1.4l-.3.2h-.2c0,0-.2-.2-.2-.2v-.2s0-.1,0-.1ZM2.5,46.1s0,0,0,0c0,0,0,0,0,0s0,0,0,0c0,0,0,0,0,0s0,0,0,0h.2c0-.1,0-.3,0-.3,0,0,0,0,0,0,0,0,0,0,0,0,0,0,0,0,0,0,0,0,0,0,0,0,0,0,0,0,0,0,0,0,0,0,0,0s0,0,0,0c0,0,0,0,0,0s0,0,0,0h0s0,.2,0,.2ZM3.2,45.6h-.2s0,0,0,0h-.2s-.2-.2-.2-.2l.2-.2h.2s.2,0,.2,0v.2c0,0,0,0,0,0ZM3,45.4s0,0,0,0c0,0,0,0,0,0s0,0,0,0,0,0,0,0c0,0,0,0,0,0h-.1c0,.1,0,.2,0,.2,0,0,0,0,0,0,0,0,0,0,0,0,0,0,0,0,0,0,0,0,0,0,0,0s0,0,0,0,0,0,0,0c0,0,0,0,0,0s0,0,0,0,0,0,0,0h0s0-.1,0-.1ZM2.9,45h.1c0,0,0,0,0,0h.2c0,0,0,.2,0,.2l-.2.2h-.1c0,0-.2-.2-.2-.2v-.2s0,0,0,0ZM3,45.2s0,0,0,0,0,0,0,0,0,0,0,0c0,0,0,0,0,0s0,0,0,0h.1c0,0,0-.2,0-.2,0,0,0,0,0,0s0,0,0,0c0,0,0,0,0,0s0,0,0,0,0,0,0,0c0,0,0,0,0,0,0,0,0,0,0,0h0s0,.1,0,.1ZM3.4,44.9h-.1s0,0,0,0h-.1s0-.1,0-.1v-.2c0,0,.2,0,.2,0h.1s0,.1,0,.1h0ZM3.3,44.7s0,0,0,0c0,0,0,0,0,0,0,0,0,0,0,0h0c0,0,0,.1,0,.1,0,0,0,0,0,0,0,0,0,0,0,0s0,0,0,0c0,0,0,0,0,0,0,0,0,0,0,0,0,0,0,0,0,0,0,0,0,0,0,0h0s0,0,0,0ZM3.1,45.9h.2s0-.1,0-.1h.3c0,0,.2.2.2.2l-.2.3h-.2s-.3,0-.3,0v-.2c-.1,0,0-.1,0-.1ZM3.7,45.8h-.2c0,0,0,0,0,0h-.2c0-.1,0-.3,0-.3l.2-.2h.2c0,0,.2.2.2.2v.2s0,0,0,0ZM3.3,46.2s0,0,0,0c0,0,0,0,0,0s0,0,0,0c0,0,0,0,0,0s0,0,0,0v-.2c.1,0,0-.1,0-.1,0,0,0,0,0,0,0,0,0,0,0,0,0,0,0,0,0,0,0,0,0,0,0,0,0,0,0,0,0,0,0,0,0,0,0,0,0,0,0,0,0,0,0,0,0,0,0,0,0,0,0,0,0,0h0c0,0,0,.2,0,.2ZM3.3,44.5h0s0,0,0,0h0c0,0,0,.1,0,.1h0c0,0,0,0,0,0h0c0,0,0-.1,0-.1h0ZM3.7,45.5s0,0,0,0,0,0,0,0,0,0,0,0c0,0,0,0,0,0,0,0,0,0,0,0h-.1c0,0,0,.2,0,.2,0,0,0,0,0,0,0,0,0,0,0,0,0,0,0,0,0,0,0,0,0,0,0,0,0,0,0,0,0,0,0,0,0,0,0,0s0,0,0,0c0,0,0,0,0,0,0,0,0,0,0,0h0s0-.1,0-.1ZM3.3,44.6s0,0,0,0c0,0,0,0,0,0s0,0,0,0h0s0,0,0,0c0,0,0,0,0,0,0,0,0,0,0,0,0,0,0,0,0,0,0,0,0,0,0,0s0,0,0,0h0s0,0,0,0ZM3.6,44.5h0s0,0,0,0h0s0,0,0,0h0c0,0,0,0,0,0h0s0,0,0,0h0ZM3.4,45.1h.2s0,0,0,0h.2s.1.2.1.2v.2h-.5c0,0,0-.2,0-.2h0ZM3.5,44.4h0s0,0,0,0h0s0,0,0,0c0,0,0,0,0,0s0,0,0,0h0s0,0,0,0c0,0,0,0,0,0h0s0,0,0,0ZM3.8,45h0c0,0,0,0,0,0h-.1c0,0,0-.2,0-.2h.1c0-.1,0,0,0,0h.1c0,0,0,.2,0,.2h0ZM3.5,45.3h0s0,0,0,0,0,0,0,0c0,0,0,0,0,0h0c0-.1,0-.2,0-.2,0,0,0,0,0,0,0,0,0,0,0,0s0,0,0,0c0,0,0,0,0,0,0,0,0,0,0,0,0,0,0,0,0,0,0,0,0,0,0,0h0s0,.1,0,.1ZM3.7,44.8s0,0,0,0c0,0,0,0,0,0s0,0,0,0h0c0,0,0,.1,0,.1,0,0,0,0,0,0,0,0,0,0,0,0,0,0,0,0,0,0,0,0,0,0,0,0s0,0,.1,0h0s0,0,0,0ZM3.5,44.6h0s0,0,0,0h.1s0,0,0,0h0c0,.1,0,.1,0,.1h0s0,0,0,0h0ZM3.7,44.5h0s0,0,0,0h0s0,0,0,0h0c0,0,.1,0,.1,0h0c0,0,0,0,0,0ZM3.6,44.7h.1s0,0,0,0h0s0,0,0,0c0,0,0,0,0,0s0,0,0,0c0,0,0,0,0,0,0,0,0,0,0,0h0s0,0,0,0ZM3.7,44.4s0,0,0,0c0,0,0,0,0,0,0,0,0,0,0,0h0s0,0,0,0c0,0,0,0,0,0s0,0,0,0c0,0,0,0,0,0,0,0,0,0,0,0,0,0,0,0,0,0h0s0,0,0,0ZM4,44.5h0s0,0,0,0h0s0,0,0,0h0c0,0,0,0,0,0h0s0,0,0,0h0ZM4.4,45.6h-.2s0,0,0,0h-.2s-.2-.2-.2-.2l.2-.2h.2s.2,0,.2,0v.2c0,0,0,.1,0,.1ZM4.2,44.9h-.1s0,0,0,0h-.1s0-.1,0-.1v-.2c0,0,.2,0,.2,0h.1s0,.1,0,.1h0ZM3.9,44.4h0s0,0,0,0h0s0,0,0,0c0,0,0,0,0,0,0,0,0,0,0,0,0,0,0,0,0,0,0,0,0,0,0,0h0s0,0,0,0ZM3.8,44.5h0s0,0,0,0h0c0,0,0,.1,0,.1h0c0,0,0,0,0,0h0c0,0,0-.1,0-.1h0ZM3.9,44.6s0,0,0,0c0,0,0,0,0,0s0,0,0,0h0s0,0,0,0c0,0,0,0,0,0,0,0,0,0,0,0,0,0,0,0,0,0,0,0,0,0,0,0s0,0,0,0h0s0,0,0,0ZM4.1,44.8s0,0,0,0c0,0,0,0,0,0h0c0,0,0,.1,0,.1,0,0,0,0,0,0s0,0,0,0,0,0,0,0c0,0,0,0,0,0,0,0,0,0,0,0s0,0,0,0c0,0,0,0,0,0h0s0,0,0,0ZM4.2,45.4s0,0,0,0,0,0,0,0c0,0,0,0,0,0,0,0,0,0,0,0s0,0,0,0h-.1c0,.1,0,.2,0,.2,0,0,0,0,0,0,0,0,0,0,0,0,0,0,0,0,0,0s0,0,0,0c0,0,0,0,0,0s0,0,0,0c0,0,0,0,0,0,0,0,0,0,0,0s0,0,0,0h0s0-.1,0-.1ZM3.9,45h.1c0,0,0,0,0,0h.2c0,0,0,.2,0,.2l-.2.2h-.1c0,0-.2-.2-.2-.2v-.2s0,0,0,0ZM4,45.7h.2c0,.1,0,0,0,0h.3c0,.1.1.4.1.4l-.3.2h-.2c0,0-.2-.2-.2-.2v-.2s0-.1,0-.1ZM4.1,44.5h0s0,0,0,0h0s0,0,0,0h0c0,0,0,0,0,0h0s0,.1,0,.1h0ZM4,45.2s0,0,0,0c0,0,0,0,0,0s0,0,0,0,0,0,0,0c0,0,0,0,0,0h.1c0,0,0-.2,0-.2,0,0,0,0,0,0,0,0,0,0,0,0,0,0,0,0,0,0,0,0,0,0,0,0s0,0,0,0c0,0,0,0,0,0,0,0,0,0,0,0h0s0,.1,0,.1ZM4.1,44.4s0,0,0,0c0,0,0,0,0,0h0s0,0,0,0c0,0,0,0,0,0s0,0,0,0,0,0,0,0c0,0,0,0,0,0,0,0,0,0,0,0h0s0,0,0,0ZM4.1,46.1s0,0,0,0c0,0,0,0,0,0s0,0,0,0c0,0,0,0,0,0,0,0,0,0,0,0h.2c0-.1,0-.3,0-.3,0,0,0,0,0,0,0,0,0,0,0,0,0,0,0,0,0,0,0,0,0,0,0,0,0,0,0,0,0,0s0,0,0,0,0,0,0,0c0,0,0,0,0,0,0,0,0,0,0,0h0s0,.2,0,.2ZM4.1,44.6h0s0,0,0,0h.1s0,0,0,0h0c0,.1,0,.1,0,.1h0s0,0,0,0h0ZM4.1,44.7s0,0,0,0c0,0,0,0,0,0h0c0,0,0,0,0,0,0,0,0,0,0,0s0,0,0,0,0,0,0,0c0,0,0,0,0,0,0,0,0,0,0,0h0s0,0,0,0ZM4.5,45h0c0,0,0,0,0,0h-.1c0,0,0-.2,0-.2h.1c0-.1,0,0,0,0h.1c0,0,0,.2,0,.2h0ZM4.5,44.8s0,0,0,0c0,0,0,0,0,0,0,0,0,0,0,0h0c0,0,0,.1,0,.1,0,0,0,0,0,0,0,0,0,0,0,0,0,0,0,0,0,0,0,0,0,0,0,0s0,0,.1,0h0s0,0,0,0ZM4.9,45.8h-.2c0,0,0,0,0,0h-.2c0-.1-.1-.3-.1-.3l.2-.2h.1c0,0,.2.2.2.2v.2s0,0,0,0ZM4.4,45.1h.2s0,0,0,0h.2s.1.2.1.2v.2h-.4c0,0,0-.2,0-.2h0ZM4.9,45.5s0,0,0,0,0,0,0,0,0,0,0,0c0,0,0,0,0,0,0,0,0,0,0,0h-.1c0,0,0,.2,0,.2,0,0,0,0,0,0,0,0,0,0,0,0,0,0,0,0,0,0,0,0,0,0,0,0s0,0,0,0c0,0,0,0,0,0,0,0,0,0,0,0h0s0-.1,0-.1ZM4.5,45.3s0,0,0,0,0,0,0,0c0,0,0,0,0,0s0,0,0,0c0,0,0,0,0,0h0c0-.1,0-.2,0-.2,0,0,0,0,0,0,0,0,0,0,0,0s0,0,0,0c0,0,0,0,0,0,0,0,0,0,0,0s0,0,0,0c0,0,0,0,0,0h0s0,.1,0,.1ZM4.7,45.9h.2s0-.1,0-.1h.3c0,0,.2.2.2.2l-.2.3h-.2s-.3,0-.3,0v-.2c-.1,0,0-.1,0-.1ZM4.9,46.2h0s0,0,0,0c0,0,0,0,0,0h0s0,0,0,0,0,0,0,0,0,0,0,0v-.2c.1,0,0-.1,0-.1,0,0,0,0,0,0,0,0,0,0,0,0,0,0,0,0,0,0,0,0,0,0,0,0,0,0,0,0,0,0s0,0,0,0c0,0,0,0,0,0,0,0,0,0,0,0,0,0,0,0,0,0h0c0,0,0,.2,0,.2Z"/>
        </g>
      </g>
      <g id="Scree-11" data-name="Scree" class="cls-1">
        <g class="cls-1">
          <path class="cls-2" d="M34.4,21.8h.2c0,.1,0,0,0,0h.3c0,.1.1.4.1.4l-.3.2h-.2c0,0-.2-.2-.2-.2v-.2s0-.1,0-.1ZM34.5,22.1s0,0,0,0c0,0,0,0,0,0s0,0,0,0c0,0,0,0,0,0,0,0,0,0,0,0h.2c0-.1,0-.3,0-.3,0,0,0,0,0,0,0,0,0,0,0,0,0,0,0,0,0,0,0,0,0,0,0,0,0,0,0,0,0,0,0,0,0,0,0,0s0,0,0,0c0,0,0,0,0,0,0,0,0,0,0,0h0s0,.2,0,.2ZM35.2,21.7h-.2s0,0,0,0h-.2s-.2-.2-.2-.2l.2-.2h.2s.2,0,.2,0v.2c0,0,0,0,0,0ZM35,21.4s0,0,0,0c0,0,0,0,0,0s0,0,0,0c0,0,0,0,0,0,0,0,0,0,0,0h-.1c0,.1,0,.2,0,.2,0,0,0,0,0,0,0,0,0,0,0,0,0,0,0,0,0,0,0,0,0,0,0,0s0,0,0,0,0,0,0,0c0,0,0,0,0,0,0,0,0,0,0,0,0,0,0,0,0,0h0s0-.1,0-.1ZM34.9,21h.1c0,0,0,0,0,0h.2c0,0,0,.2,0,.2l-.2.2h-.1c0,0-.2-.2-.2-.2v-.2s0,0,0,0ZM35,21.2s0,0,0,0c0,0,0,0,0,0s0,0,0,0c0,0,0,0,0,0s0,0,0,0h.1c0,0,0-.2,0-.2,0,0,0,0,0,0,0,0,0,0,0,0,0,0,0,0,0,0s0,0,0,0,0,0,0,0c0,0,0,0,0,0s0,0,0,0h0s0,.1,0,.1ZM35.4,20.9h-.1s0,0,0,0h-.1s0-.1,0-.1v-.2c0,0,.2,0,.2,0h.1s0,.1,0,.1h0ZM35.3,20.8s0,0,0,0c0,0,0,0,0,0,0,0,0,0,0,0h0c0,0,0,.1,0,.1,0,0,0,0,0,0,0,0,0,0,0,0s0,0,0,0c0,0,0,0,0,0,0,0,0,0,0,0,0,0,0,0,0,0,0,0,0,0,0,0h0s0,0,0,0ZM35.1,21.9h.2s0-.1,0-.1h.3c0,0,.2.2.2.2l-.2.3h-.2s-.3,0-.3,0v-.2c-.1,0,0-.1,0-.1ZM35.7,21.8h-.2c0,0,0,0,0,0h-.2c0-.1-.1-.3-.1-.3l.2-.2h.2c0,0,.2.2.2.2v.2s0,0,0,0ZM35.3,22.2s0,0,0,0c0,0,0,0,0,0s0,0,0,0c0,0,0,0,0,0s0,0,0,0v-.2c.1,0,0-.1,0-.1,0,0,0,0,0,0,0,0,0,0,0,0,0,0,0,0,0,0,0,0,0,0,0,0,0,0,0,0,0,0,0,0,0,0,0,0,0,0,0,0,0,0s0,0,0,0,0,0,0,0h0c0,0,0,.2,0,.2ZM35.3,20.5h0s0,0,0,0h0c0,0,0,.1,0,.1h-.1c0,0,0,0,0,0h0c0,0,0-.1,0-.1h0ZM35.7,21.5s0,0,0,0c0,0,0,0,0,0s0,0,0,0c0,0,0,0,0,0s0,0,0,0h-.1c0,0,0,.2,0,.2,0,0,0,0,0,0,0,0,0,0,0,0,0,0,0,0,0,0,0,0,0,0,0,0,0,0,0,0,0,0,0,0,0,0,0,0s0,0,0,0c0,0,0,0,0,0,0,0,0,0,0,0h0s0-.1,0-.1ZM35.3,20.6s0,0,0,0c0,0,0,0,0,0s0,0,0,0h0s0,0,0,0c0,0,0,0,0,0,0,0,0,0,0,0,0,0,0,0,0,0,0,0,0,0,0,0s0,0,0,0h0s0,0,0,0ZM35.6,20.5h0s0,0,0,0h0s0,0,0,0h0c0,0,0,0,0,0h0s0,0,0,0h0ZM35.4,21.1h.2s0,0,0,0h.2s.1.2.1.2v.2h-.5c0,0,0-.2,0-.2h0ZM35.5,20.4h0s0,0,0,0h0s0,0,0,0c0,0,0,0,0,0,0,0,0,0,0,0h0s0,0,0,0c0,0,0,0,0,0h0s0,0,0,0ZM35.8,21h-.1c0,0,0,0,0,0h-.1c0,0,0-.2,0-.2h.1c0-.1,0,0,0,0h.1c0,0,0,.2,0,.2h0ZM35.5,21.3h0s0,0,0,0,0,0,0,0c0,0,0,0,0,0h0c0-.1,0-.2,0-.2,0,0,0,0,0,0,0,0,0,0,0,0s0,0,0,0c0,0,0,0,0,0,0,0,0,0,0,0,0,0,0,0,0,0,0,0,0,0,0,0h0s0,.1,0,.1ZM35.7,20.8s0,0,0,0c0,0,0,0,0,0s0,0,0,0h0c0,0,0,.1,0,.1,0,0,0,0,0,0,0,0,0,0,0,0,0,0,0,0,0,0,0,0,0,0,0,0s0,0,.1,0h0s0,0,0,0ZM35.5,20.6h0s0,0,0,0h.1s0,0,0,0h0c0,.1,0,.1,0,.1h0s0-.1,0-.1h0ZM35.7,20.5h0s0,0,0,0h0s0-.1,0-.1h0c0,0,.1,0,.1,0h0c0,0,0,0,0,0ZM35.6,20.7h.1s0,0,0,0h0s0,0,0,0c0,0,0,0,0,0s0,0,0,0c0,0,0,0,0,0,0,0,0,0,0,0h0s0,0,0,0ZM35.7,20.4s0,0,0,0c0,0,0,0,0,0,0,0,0,0,0,0h0s0,0,0,0c0,0,0,0,0,0,0,0,0,0,0,0,0,0,0,0,0,0,0,0,0,0,0,0,0,0,0,0,0,0h0s0,0,0,0ZM36,20.5h0s0,0,0,0h0s0,0,0,0h0c0,0,0,0,0,0h0s0,0,0,0h0ZM36.4,21.7h-.2s0,0,0,0h-.2s-.2-.2-.2-.2l.2-.2h.2s.2,0,.2,0v.2c0,0,0,.1,0,.1ZM36.2,20.9h-.1s0,0,0,0h-.1s0-.1,0-.1v-.2c0,0,.2,0,.2,0h.1s0,.1,0,.1h0ZM35.9,20.4h0s0,0,0,0h0s0,0,0,0c0,0,0,0,0,0,0,0,0,0,0,0,0,0,0,0,0,0,0,0,0,0,0,0h0s0,0,0,0ZM35.8,20.5h0s0,0,0,0h0c0,0,0,.1,0,.1h0c0,0,0,0,0,0h0c0,0,0-.1,0-.1h0ZM35.9,20.6s0,0,0,0,0,0,0,0,0,0,0,0h0s0,0,0,0c0,0,0,0,0,0,0,0,0,0,0,0,0,0,0,0,0,0,0,0,0,0,0,0,0,0,0,0,0,0h0s0,0,0,0ZM36.1,20.8s0,0,0,0c0,0,0,0,0,0h0c0,0,0,.1,0,.1,0,0,0,0,0,0,0,0,0,0,0,0s0,0,0,0c0,0,0,0,0,0,0,0,0,0,0,0,0,0,0,0,0,0s0,0,0,0h0s0,0,0,0ZM36.2,21.4s0,0,0,0,0,0,0,0,0,0,0,0c0,0,0,0,0,0,0,0,0,0,0,0h-.1c0,.1,0,.2,0,.2,0,0,0,0,0,0,0,0,0,0,0,0,0,0,0,0,0,0,0,0,0,0,0,0,0,0,0,0,0,0s0,0,0,0c0,0,0,0,0,0,0,0,0,0,0,0,0,0,0,0,0,0h0s0-.1,0-.1ZM35.9,21h.1c0,0,0,0,0,0h.2c0,0,0,.2,0,.2l-.2.2h-.1c0,0-.2-.2-.2-.2v-.2s0,0,0,0ZM36,21.8h.2c0,.1,0,0,0,0h.3c0,.1.1.4.1.4l-.3.2h-.2c0,0-.2-.2-.2-.2v-.2s0-.1,0-.1ZM36.1,20.5h0s0,0,0,0h0s0,0,0,0h0c0,0,0,0,0,0h0s0,.1,0,.1h0ZM36,21.2s0,0,0,0c0,0,0,0,0,0s0,0,0,0c0,0,0,0,0,0s0,0,0,0h.1c0,0,0-.2,0-.2,0,0,0,0,0,0,0,0,0,0,0,0,0,0,0,0,0,0,0,0,0,0,0,0s0,0,0,0c0,0,0,0,0,0s0,0,0,0h0s0,.1,0,.1ZM36.1,20.4s0,0,0,0c0,0,0,0,0,0h0s0,0,0,0c0,0,0,0,0,0,0,0,0,0,0,0s0,0,0,0c0,0,0,0,0,0s0,0,0,0h0s0,0,0,0ZM36.1,22.1s0,0,0,0c0,0,0,0,0,0s0,0,0,0c0,0,0,0,0,0,0,0,0,0,0,0h.2c0-.1,0-.3,0-.3,0,0,0,0,0,0,0,0,0,0,0,0,0,0,0,0,0,0,0,0,0,0,0,0,0,0,0,0,0,0,0,0,0,0,0,0s0,0,0,0c0,0,0,0,0,0,0,0,0,0,0,0h0s0,.2,0,.2ZM36.1,20.6h0s0,0,0,0h.1s0,0,0,0h0c0,.1,0,.1,0,.1h0s0-.1,0-.1h0ZM36.1,20.7s0,0,0,0c0,0,0,0,0,0h0c0,0,0,0,0,0,0,0,0,0,0,0,0,0,0,0,0,0s0,0,0,0c0,0,0,0,0,0,0,0,0,0,0,0h0s0,0,0,0ZM36.5,21h-.1c0,0,0,0,0,0h-.1c0,0,0-.2,0-.2h.1c0-.1,0,0,0,0h.1c0,0,0,.2,0,.2h0ZM36.5,20.8s0,0,0,0c0,0,0,0,0,0,0,0,0,0,0,0h0c0,0,0,.1,0,.1,0,0,0,0,0,0,0,0,0,0,0,0,0,0,0,0,0,0,0,0,0,0,0,0s0,0,.1,0h0s0,0,0,0ZM36.9,21.8h-.2c0,0,0,0,0,0h-.2c0-.1-.1-.3-.1-.3l.2-.2h.1c0,0,.2.2.2.2v.2s0,0,0,0ZM36.4,21.1h.2s0,0,0,0h.2s.1.2.1.2v.2h-.4c0,0,0-.2,0-.2h0ZM36.9,21.5s0,0,0,0c0,0,0,0,0,0s0,0,0,0c0,0,0,0,0,0,0,0,0,0,0,0h-.1c0,0,0,.2,0,.2,0,0,0,0,0,0,0,0,0,0,0,0,0,0,0,0,0,0s0,0,0,0,0,0,0,0c0,0,0,0,0,0s0,0,0,0h0s0-.1,0-.1ZM36.5,21.3s0,0,0,0c0,0,0,0,0,0s0,0,0,0,0,0,0,0c0,0,0,0,0,0h0c0-.1,0-.2,0-.2,0,0,0,0,0,0,0,0,0,0,0,0s0,0,0,0,0,0,0,0c0,0,0,0,0,0,0,0,0,0,0,0s0,0,0,0h0s0,.1,0,.1ZM36.7,21.9h.2s0-.1,0-.1h.3c0,0,.2.2.2.2l-.2.3h-.2s-.3,0-.3,0v-.2c-.1,0,0-.1,0-.1ZM36.9,22.2h0s0,0,0,0c0,0,0,0,0,0h0s0,0,0,0,0,0,0,0c0,0,0,0,0,0v-.2c.1,0,0-.1,0-.1,0,0,0,0,0,0,0,0,0,0,0,0,0,0,0,0,0,0,0,0,0,0,0,0,0,0,0,0,0,0,0,0,0,0,0,0,0,0,0,0,0,0s0,0,0,0c0,0,0,0,0,0h0c0,0,0,.2,0,.2Z"/>
        </g>
      </g>
    </g>
  </g>
</svg>